<?xml version="1.0" encoding="UTF-8"?><svg id="Calque_2" xmlns="http://www.w3.org/2000/svg" xmlns:xlink="http://www.w3.org/1999/xlink" viewBox="0 0 1920 1080"><defs><style>.cls-1{fill:url(#radial-gradient);}.cls-2{clip-path:url(#clippath);}.cls-3{fill:url(#radial-gradient-2);}.cls-4{fill:none;}.cls-5{fill:url(#radial-gradient-3);}</style><clipPath id="clippath"><rect class="cls-4" width="1920" height="1080"/></clipPath><radialGradient id="radial-gradient" cx="2864.17" cy="3278" fx="2864.17" fy="3278" r="949.42" gradientTransform="translate(-1812.79 -1438.27) scale(.97 .6)" gradientUnits="userSpaceOnUse"><stop offset="0" stop-color="#15446f"/><stop offset="1" stop-color="#1b1734"/></radialGradient><radialGradient id="radial-gradient-2" cx="2280.37" cy="5602.7" fx="2280.37" fy="5602.7" r="1350.86" gradientTransform="translate(-2021.54 -1142.23) rotate(-9.87) scale(.72 .46) skewX(8.59)" xlink:href="#radial-gradient"/><radialGradient id="radial-gradient-3" cx="-1221.41" cy="-95.23" fx="-1221.41" fy="-95.23" r="1283.88" gradientTransform="translate(433.8 -487.52) rotate(-143.65) scale(.65 -.55) skewX(21.45)" xlink:href="#radial-gradient"/></defs><g id="Calque_3"><g class="cls-2"><g><rect class="cls-1" x="-5.91" y="-.62" width="1938.56" height="1081.53"/><path class="cls-3" d="M-312.65,956.55C-178.38,644.14-22.57,561.42,100.72,548.17c213.36-22.94,290,166.4,688.46,236.85,375.61,66.41,587.02-52.42,795.88,51.36,128.24,63.72,199.94,183.75,171.02,280.85-104.66,351.42-1602.07,653.27-2019.53,348.43-50.02-36.52-208.24-172.09-49.2-509.1Z"/><path class="cls-5" d="M2138.44,304.86c-4.74,15.64-56.46,175.97-214.58,193.44-143.43,15.84-229.71-101.85-464.93-160.14-294.95-73.1-428.9,45.13-649.76,4.39C379.75,263.34-50.95-356.44,243.88-568.79c246.3-177.39,935.38-24.67,1335.11,182.51,308.1,159.69,632.73,449.39,559.45,691.14Z"/></g></g></g></svg>