<?xml version="1.0" encoding="UTF-8"?><svg id="Calque_2" xmlns="http://www.w3.org/2000/svg" viewBox="0 0 223.47 223.38"><defs><style>.cls-1{fill:#eda16e;stroke:#eda16e;}.cls-1,.cls-2,.cls-3,.cls-4{stroke-linecap:square;stroke-miterlimit:10;stroke-width:1.89px;}.cls-5{fill:#fff;}.cls-2{fill:#adb5bc;stroke:#adb5bc;}.cls-3{fill:#84cee3;stroke:#84cee3;}.cls-4{fill:#add18c;stroke:#add18c;}</style></defs><g id="Logo_couleurs"><g id="Logo_v1"><g><g><polygon class="cls-3" points="7.13 120.9 7.14 141.18 26.21 141.18 26.21 160.25 44.68 160.08 44.67 160.4 44.68 178.71 63.66 178.71 63.66 197.68 82.25 197.68 82.25 197.96 82.25 216.27 102.53 216.26 102.53 222.44 107.14 222.44 107.14 206.13 92.39 206.13 92.39 187.54 92.39 187.54 73.8 187.54 73.79 168.56 54.81 168.57 54.81 150.26 54.82 149.94 36.35 150.11 36.35 131.04 17.27 131.04 17.27 116.28 .95 116.28 .95 120.93 7.13 120.9"/><polyline class="cls-3" points="98.43 143.92 98.43 162.9 98.43 144.59 98.43 143.92 79.45 143.92 79.46 125.46 60.98 125.46 60.96 116.27 89.57 116.26 89.57 133.8 107.11 133.8 107.13 162.92 98.43 162.9"/><polyline class="cls-3" points="99.63 180.3 99.63 180.3 81.04 180.3 99.63 180.3 99.63 198.89 107.13 198.89 107.13 170.16 91.19 170.15 91.19 170.15 91.19 151.83 91.19 151.17 72.21 151.17 72.21 132.54 53.74 132.71 53.74 116.27 24.51 116.28 24.51 123.79 43.59 123.79 43.59 142.86 62.06 142.7 62.06 161.32 81.04 161.32 81.04 161.99 81.04 180.3"/></g><g><polyline class="cls-4" points="116.89 133.75 116.9 222.34 129.72 222.34 129.54 133.97"/><polyline class="cls-4" points="135.21 129.18 222.36 129.96 222.36 116.24 135.2 116.26"/><polygon class="cls-4" points="130.38 133.75 138.76 222.34 157.65 222.33 141.82 141.19 222.37 156.99 222.36 138.78 134.38 129.98 134.38 133.75 130.38 133.75"/><path class="cls-4" d="M222.37,168.05c0,5.55,0,15.33,0,20.59-14.32-7.05-47.63-23.06-63.88-30.8,7.47,15.96,23.21,49.23,30.27,64.48-5.23,0-14.81,0-20.26,0-5.53-17.98-18.36-58.74-24.56-79.03,21.3,6.99,57.97,18.03,78.43,24.75Z"/><polygon class="cls-4" points="222.52 200.3 159.12 158.48 199.7 222.42 222.45 222.35 222.52 200.3"/><line class="cls-4" x1="134.38" y1="133.75" x2="134.38" y2="116.26"/><line class="cls-4" x1="134.38" y1="133.75" x2="116.89" y2="133.75"/></g><g><polygon class="cls-1" points="43.55 106.4 43.54 42.96 106.98 42.95 106.98 53.2 53.81 53.21 53.82 106.38 43.55 106.4"/><polyline class="cls-1" points="106.99 71 106.98 60.75 61.35 60.76 61.35 106.39 71.63 106.39 89.73 106.37 89.73 89.11 106.99 89.11 106.99 71.03"/><polygon class="cls-1" points="35.95 88.76 35.96 106.37 4.21 106.37 35.95 88.76"/><polygon class="cls-1" points="35.93 62.11 4 71.03 35.93 80 35.93 62.11"/><polygon class="cls-1" points="89.41 34.97 106.93 34.97 106.92 3.63 89.41 34.97"/><polygon class="cls-1" points="62.15 34.97 70.97 3.53 79.69 34.97 62.15 34.97"/><polygon class="cls-1" points="51.69 34.89 35.62 35.06 35.79 50.79 4.26 3.71 51.69 34.89"/></g><polygon class="cls-5" points="124.16 99.17 124.21 123.59 99.78 123.6 99.77 99.17 124.16 99.17"/><g><polygon class="cls-2" points="193.81 51.43 172.05 51.24 171.96 29.58 116.86 43.5 116.86 64.48 158.75 64.49 158.78 106.41 179.98 106.4 193.81 51.43"/><polyline class="cls-2" points="150.87 72.4 150.9 106.41 134.32 106.41 134.32 88.98 116.89 88.98 116.87 72.39 150.87 72.4"/><polygon class="cls-2" points="116.85 .95 116.95 35.67 152.62 26.72 152.64 15.62 138.03 15.19 138.19 .95 116.85 .95"/><polygon class="cls-2" points="179.94 43.35 179.87 27.32 201.33 21.96 196.15 43.49 179.94 43.35"/><rect class="cls-2" x="144.73" y=".95" width="7.89" height="7.92"/><polygon class="cls-2" points="222.44 106.42 187.64 106.34 196.58 70.94 207.68 70.92 207.67 85.25 222.44 85.09 222.44 106.42"/><rect class="cls-2" x="214.51" y="70.92" width="7.92" height="7.89" transform="translate(-.08 .24) rotate(-.06)"/></g></g></g></g></svg>