<?xml version="1.0" encoding="UTF-8"?><svg id="Calque_2" xmlns="http://www.w3.org/2000/svg" viewBox="0 0 324.2 34.75"><defs><style>.cls-1{fill:#fff;}</style></defs><g id="Calque_2-2"><g><path class="cls-1" d="M28.75,29.3l5.45,5.45H17.15c-3.55,0-6.95-1.1-9.85-3.15-2.2-1.55-4.05-3.65-5.3-6.05-1.3-2.45-2-5.25-2-8.05C0,13.2,1.6,9.1,4.5,5.95c.95-1.05,2.05-2,3.25-2.8C10.55,1.3,13.8,.35,17.15,.35c4.6,0,8.9,1.8,12.15,5.05s5.05,7.55,5.05,12.15c0,3.35-.95,6.6-2.8,9.4l-.45,.7-6.2-6.2,.2-.45c.5-1.1,.75-2.3,.75-3.55,0-2.3-.9-4.45-2.55-6.1s-3.8-2.55-6.1-2.55c-1.25,0-2.45,.25-3.55,.75-.95,.45-1.8,1.05-2.55,1.8-.15,.15-.3,.35-.45,.55-1.3,1.55-2.05,3.55-2.05,5.6,0,2.3,.9,4.45,2.55,6.1,1.6,1.6,3.75,2.5,6,2.55h8.6l.2,.2,2.8,2.95Z"/><path class="cls-1" d="M47.85,12.6l-8.55-8.55V.2h8.55V12.6Zm9.55,13.4l6.8,6.8-.95,.4c-2.15,.9-4.4,1.35-6.75,1.35-3.5,0-6.85-1.05-9.7-3-4.65-3.2-7.45-8.5-7.45-14.15V7.95l8.55,8.55v.95c0,2.3,.9,4.45,2.55,6.1s3.8,2.55,6.1,2.55h.6l.25-.1ZM73.75,.3V17.5c0,2.7-.6,5.3-1.8,7.7-1.15,2.3-2.8,4.35-4.8,5.9l-.5,.35-6.15-6.15,.7-.45c.55-.35,1.05-.75,1.5-1.2,1.65-1.65,2.55-3.8,2.55-6.1V.35l8.5-.05Z"/><path class="cls-1" d="M87.25,.35V13.1l-8.5-8.5V.35h8.5Zm-8.5,8.15l8.5,8.5v17.7h-8.5V8.5Z"/><path class="cls-1" d="M104.3,34.7h-12.05l25.85-25.85h-20.25V.35h40.8l-25.85,25.85-8.5,8.5Zm12.4-8.5h15.5v8.5h-24l8.5-8.5Z"/><path class="cls-1" d="M201.75,.35V8.85h-12.95v12.65l-8.5-8.5v-4.15h-12.9V.35h34.35Zm-21.45,16.55l8.5,8.5v9.3h-8.5V16.9Z"/><path class="cls-1" d="M215.25,.35V13.1l-8.5-8.5V.35h8.5Zm-8.5,8.15l8.5,8.5v17.7h-8.5V8.5Z"/><path class="cls-1" d="M254.5,.35V34.7h-8.5v-15.15l-8.65,8.7-8.65-8.7-8.5-8.5V.35h1.35l15.85,15.85L253.25,.35h1.25Zm-34.25,14.6l8.5,8.5v11.25h-8.5V14.95Z"/><path class="cls-1" d="M269.95,21.9l-10.4-10.4V.4h28.7V8.9h-19.25l4.45,4.45h14.8v8.5l-18.3,.05Zm18.3,4.35v8.5h-28.65V15.3l8.5,8.5v2.4l20.15,.05Z"/><path class="cls-1" d="M324.2,0V28.15l-7.15-7.15V0h7.15Zm-7.15,26.85l7.15,7.15v.7h-7.15v-7.85Z"/></g></g></svg>