<?xml version="1.0" encoding="UTF-8"?><svg id="Calque_2" xmlns="http://www.w3.org/2000/svg" viewBox="0 0 550.27 46.18"><defs><style>.cls-1{fill:#1b1734;}</style></defs><g id="Calque_3"><g><path class="cls-1" d="M44.11,28.26c.39,1.3,.58,2.66,.58,4.03s-.19,2.73-.58,4.03c-.84,2.79-2.6,5.33-4.94,7.08-2.4,1.82-5.33,2.79-8.38,2.79H.06v-11.04H30.79c1.56,0,2.86-1.3,2.86-2.86s-1.3-2.86-2.86-2.86H13.97c-1.36,0-2.73-.19-4.03-.58-2.21-.65-4.22-1.88-5.85-3.51-1.62-1.62-2.86-3.64-3.51-5.85-.39-1.3-.58-2.66-.58-4.03s.19-2.73,.58-4.03c.65-2.21,1.88-4.22,3.51-5.85,1.62-1.62,3.64-2.86,5.85-3.51,.32-.13,.65-.19,.97-.26l.45-.13,10.85,10.85H13.97c-1.56,0-2.86,1.3-2.86,2.86s1.3,2.86,2.86,2.86h19.94c.13,0,.26,.07,.39,.13h.06l.13,.06h.19c.13,.07,.26,.13,.39,.2h.06c.26,.06,.52,.13,.78,.19h.06c.13,.07,.26,.13,.39,.2h.06c.19,.06,.39,.13,.58,.19h.19c.13,.07,.26,.13,.39,.2,.2,.13,.39,.26,.58,.39l.32,.19c.13,.07,.26,.13,.39,.2,.13,.06,.26,.13,.39,.19l.06,.07c.26,.2,.52,.39,.78,.58,.06,.06,.19,.13,.32,.26,.06,.06,.13,.13,.19,.19l.13,.13c.06,0,.13,0,.19,.07,.06,.06,.13,.13,.19,.19,.19,.2,.39,.39,.58,.58,.06,.06,.13,.13,.2,.2l.13,.13v.19c.06,.07,.13,.13,.19,.2l.06,.06,.19,.39c.06,.07,.13,.13,.19,.2,.06,.06,.13,.13,.19,.19l.06,.13c.19,.39,.39,.78,.58,1.17l.06,.06c.13,.26,.26,.52,.39,.78l.06,.13,.19,.58v.2l.19,.45-.39,.71Zm.97-27.48V11.82H27.67L16.63,.78h28.45Z"/><path class="cls-1" d="M65.02,28.78l-13.51-13.51V.84h37.28V11.89h-25.01l5.78,5.78h19.23v11.04l-23.77,.07Zm23.77,5.65v11.04H51.58V20.2l11.04,11.04v3.12l26.18,.07Z"/><path class="cls-1" d="M140.89,45.47h-17.15l-.26-.26-17.15-17.08v.06l-11.04-11.04V.84h29.81c.84,0,1.69,.07,2.53,.26,2.53,.52,4.81,1.75,6.63,3.57,1.69,1.69,2.86,3.83,3.44,6.17,.26,.97,.39,2.01,.39,3.05,0,.46,0,.91-.06,1.36-.13,3.57-1.56,6.88-4.03,9.35-2.53,2.53-5.91,3.96-9.48,4.03h-.71l17.08,16.82Zm-45.47-23.45l11.04,11.04v12.28h-11.04V22.02Zm27.67-4.48c.26,0,.52,0,.78-.07,.19-.06,.39-.13,.58-.19,.52-.2,.97-.52,1.36-.91,.06-.07,.13-.13,.19-.2,.06-.07,.13-.13,.19-.2,.06-.06,.06-.13,.06-.19,.06-.13,.13-.26,.2-.39,.19-.52,.32-1.04,.32-1.62v-.39c0-.13,0-.26-.06-.39-.06-.2-.13-.39-.19-.58h-19.36l5.26,5.26h10.59l.06-.13Z"/><path class="cls-1" d="M158.44,.78V17.34l-11.04-11.04V.78h11.04Zm-11.04,10.59l11.04,11.04v23h-11.04V11.37Z"/><path class="cls-1" d="M193.84,32.15l7.86,7.86-.78,.65c-3.96,3.05-8.7,4.68-13.71,4.68-5.98,0-11.56-2.34-15.78-6.56-4.22-4.22-6.56-9.81-6.56-15.78,0-5,1.62-9.74,4.68-13.71l.65-.78,7.86,7.86-.39,.58c-1.1,1.75-1.69,3.83-1.69,5.98,0,2.99,1.17,5.78,3.31,7.92,2.14,2.14,4.94,3.31,7.92,3.31,2.14,0,4.22-.58,5.98-1.69l.65-.32Zm9.16-24.94c4.22,4.22,6.56,9.81,6.56,15.78,0,5-1.62,9.74-4.68,13.71l-.65,.78-7.86-7.86,.39-.58c1.1-1.75,1.69-3.83,1.69-5.98,0-2.99-1.17-5.78-3.31-7.92s-4.94-3.31-7.92-3.31c-2.14,0-4.22,.58-5.98,1.69l-.58,.39-7.86-7.86,.78-.65c3.96-3.05,8.7-4.68,13.71-4.68,5.98,0,11.56,2.34,15.78,6.56l-.06-.06Z"/><path class="cls-1" d="M227.03,16.69l-11.11-11.11V.58h11.11V16.69Zm12.41,17.41l8.83,8.83-1.23,.52c-2.79,1.17-5.72,1.75-8.77,1.75-4.55,0-8.9-1.36-12.6-3.9-6.04-4.16-9.68-11.04-9.68-18.38V10.65l11.11,11.11v1.23c0,2.99,1.17,5.78,3.31,7.92s4.94,3.31,7.92,3.31h.78l.32-.13ZM260.68,.71V23.06c0,3.51-.78,6.88-2.34,10s-3.64,5.65-6.24,7.67l-.65,.45-7.99-7.99,.91-.58c.71-.45,1.36-.97,1.95-1.56,2.14-2.14,3.31-4.94,3.31-7.92V.78l11.04-.07Z"/><path class="cls-1" d="M310.83,28.26c.39,1.3,.58,2.66,.58,4.03s-.2,2.73-.58,4.03c-.84,2.79-2.6,5.33-4.94,7.08-2.4,1.82-5.33,2.79-8.38,2.79h-30.73v-11.04h30.73c1.56,0,2.86-1.3,2.86-2.86s-1.3-2.86-2.86-2.86h-16.82c-1.36,0-2.73-.19-4.03-.58-2.21-.65-4.22-1.88-5.85-3.51-1.62-1.62-2.86-3.64-3.51-5.85-.39-1.3-.58-2.66-.58-4.03s.19-2.73,.58-4.03c.65-2.21,1.88-4.22,3.51-5.85,1.62-1.62,3.64-2.86,5.85-3.51,.33-.13,.65-.19,.97-.26l.45-.13,10.85,10.85h-8.25c-1.56,0-2.86,1.3-2.86,2.86s1.3,2.86,2.86,2.86h19.94c.13,0,.26,.07,.39,.13h.07l.13,.06h.2c.13,.07,.26,.13,.39,.2h.06c.26,.06,.52,.13,.78,.19h.07c.13,.07,.26,.13,.39,.2h.06c.2,.06,.39,.13,.58,.19h.2c.13,.07,.26,.13,.39,.2,.19,.13,.39,.26,.58,.39l.33,.19c.13,.07,.26,.13,.39,.2,.13,.06,.26,.13,.39,.19l.07,.07c.26,.2,.52,.39,.78,.58,.06,.06,.19,.13,.32,.26,.07,.06,.13,.13,.2,.19l.13,.13c.06,0,.13,0,.2,.07l.19,.19,.58,.58c.06,.06,.13,.13,.19,.2l.13,.13v.19l.2,.2,.06,.06c.07,.13,.13,.26,.2,.39,.06,.07,.13,.13,.19,.2,.07,.06,.13,.13,.2,.19l.07,.13c.19,.39,.39,.78,.58,1.17l.07,.06,.39,.78,.06,.13,.2,.58v.2l.19,.45-.39,.71Zm.97-27.48V11.82h-17.41l-11.04-11.04h28.45Z"/><path class="cls-1" d="M393.84,26.83v18.51h-11.04v-2.99c-3.38,2.01-7.28,3.05-11.24,3.05-5.98,0-11.56-2.34-15.79-6.56-4.22-4.22-6.56-9.81-6.56-15.78,0-3.38,.71-6.63,2.14-9.61l.52-1.17,8.57,8.57-.06,.46c-.07,.58-.13,1.17-.13,1.75,0,2.99,1.17,5.78,3.31,7.92s4.94,3.31,7.92,3.31c2.34,0,4.55-.71,6.43-2.01l-4.03-5.59,19.94,.13Zm-31.96-9.68l-7.92-7.92,.52-.65c4.22-5,10.46-7.86,17.02-7.86,4.55,0,8.9,1.36,12.6,3.96,4.68,3.18,7.92,7.99,9.16,13.51l.26,1.1h-11.43l-.26-.52c-.58-1.36-1.43-2.6-2.47-3.64-2.14-2.14-4.94-3.31-7.92-3.31s-5.78,1.17-7.92,3.31c-.39,.39-.78,.84-1.1,1.3l-.52,.71Z"/><path class="cls-1" d="M419.37,14.03l6.43,10.65-12.6,20.72h-12.93l19.1-31.37Zm36.05,31.44h-12.93l-2.66-4.42-18.38-30.46,6.43-10.59,27.54,45.47Z"/><path class="cls-1" d="M506.42,.78V45.4h-11.04V25.72l-11.24,11.3-11.24-11.3-11.04-11.04V.78h1.75l20.59,20.59L504.79,.78h1.62Zm-44.5,18.97l11.04,11.04v14.62h-11.04V19.75Z"/><path class="cls-1" d="M526.49,28.78l-13.51-13.51V.84h37.29V11.89h-25.01l5.78,5.78h19.23v11.04l-23.77,.07Zm23.77,5.65v11.04h-37.22V20.2l11.04,11.04v3.12l26.18,.07Z"/></g></g></svg>