<?xml version="1.0" encoding="UTF-8"?><svg xmlns="http://www.w3.org/2000/svg" xmlns:xlink="http://www.w3.org/1999/xlink" viewBox="0 0 90.94 90.94"><defs><style>.cls-1{fill:url(#Dégradé_sans_nom_2);}.cls-2{isolation:isolate;}.cls-3{fill:#6dc4cc;}.cls-4{mix-blend-mode:screen;opacity:.12;}.cls-5{clip-path:url(#clippath-1);}.cls-6{fill:url(#radial-gradient);}.cls-7{fill:#66c7f0;}.cls-8{clip-path:url(#clippath);}.cls-9{fill:url(#radial-gradient-2);}.cls-10,.cls-11,.cls-12{fill:none;}.cls-11{stroke:#73bf9b;}.cls-11,.cls-12{stroke-miterlimit:10;stroke-width:1.3px;}.cls-12{stroke:url(#Dégradé_sans_nom_41);}</style><clipPath id="clippath"><rect class="cls-10" width="90.94" height="90.94"/></clipPath><clipPath id="clippath-1"><rect class="cls-10" x="-7.57" width="104.34" height="90.94"/></clipPath><radialGradient id="Dégradé_sans_nom_2" cx="3715.98" cy="394.64" fx="3715.98" fy="394.64" r="949.42" gradientTransform="translate(-149.26 25.44) scale(.05)" gradientUnits="userSpaceOnUse"><stop offset="0" stop-color="#17446f"/><stop offset="1" stop-color="#1b1834"/></radialGradient><radialGradient id="radial-gradient" cx="4627.37" cy="2546.76" fx="4627.37" fy="2546.76" r="1350.86" gradientTransform="translate(-174.69 40.11) rotate(-15.23) scale(.04)" gradientUnits="userSpaceOnUse"><stop offset="0" stop-color="#17446f"/><stop offset="1" stop-color="#1b1834"/></radialGradient><radialGradient id="radial-gradient-2" cx="-1078.01" cy="-4520.46" fx="-1078.01" fy="-4520.46" r="1283.88" gradientTransform="translate(-106.94 73.81) rotate(-130.95) scale(.04 -.04)" xlink:href="#radial-gradient"/><radialGradient id="Dégradé_sans_nom_41" cx="61.58" cy="47.76" fx="61.58" fy="47.76" r="4.01" gradientTransform="translate(-.73 21.1) rotate(-.05) scale(.85 .91)" gradientUnits="userSpaceOnUse"><stop offset="0" stop-color="#24b19e"/><stop offset=".41" stop-color="#45b59e"/><stop offset=".71" stop-color="#66bb9d"/><stop offset="1" stop-color="#73bf9b"/></radialGradient></defs><g class="cls-2"><g id="Calque_2"><g id="Calque_1-2"><g><g class="cls-8"><g class="cls-5"><rect class="cls-1" x="-7.57" width="104.34" height="90.94"/><path class="cls-6" d="M-24.08,80.56C-16.85,54.24-8.46,47.27-1.83,46.15c11.48-1.93,15.61,14.02,37.06,19.96,20.22,5.6,31.6-4.42,42.84,4.33,6.9,5.37,10.76,15.48,9.21,23.66-5.63,29.61-86.23,55.05-108.7,29.36-2.69-3.08-11.21-14.5-2.65-42.9Z"/><path class="cls-9" d="M107.85,25.65c-.26,1.32-3.04,14.83-11.55,16.3-7.72,1.34-12.36-8.58-25.02-13.49-15.88-6.16-23.08,3.8-34.97,.37C13.19,22.15-9.99-30.07,5.88-47.96c13.26-14.95,50.35-2.08,71.86,15.38,16.58,13.46,34.06,37.87,30.11,58.24Z"/><rect class="cls-10" x="-7.45" width="104.34" height="90.94"/></g><rect class="cls-10" x="-.21" y="-.44" width="91.38" height="91.38"/></g><g><g class="cls-4"><g><path class="cls-3" d="M16.57,74.42c-.66-.66-1.29-1.34-1.91-2.04-2.33-2.67-4.31-5.66-5.89-8.86-1.58-3.22-2.73-6.61-3.42-10.08-.7-3.53-.93-7.1-.7-10.63v-.16s18.51,1.22,18.51,1.22v.16c-.14,1.9-.01,3.85,.37,5.79,.37,1.89,1,3.75,1.87,5.52,.87,1.76,1.96,3.4,3.23,4.86,1.31,1.49,2.77,2.78,4.35,3.84l.14,.09-10.34,15.39-.14-.09c-2.17-1.45-4.21-3.13-6.08-5ZM4.97,42.99c-.22,3.44,.02,6.94,.7,10.38,.68,3.44,1.82,6.8,3.39,10,1.57,3.18,3.53,6.14,5.85,8.79,2.32,2.65,4.94,4.97,7.79,6.9l9.97-14.85c-1.55-1.05-2.99-2.33-4.28-3.8-1.29-1.48-2.39-3.14-3.28-4.93-.88-1.8-1.52-3.69-1.9-5.61-.38-1.91-.51-3.83-.4-5.71l-17.84-1.18Z"/><path class="cls-3" d="M22.23,37.53c-1.05,3.07-1.48,6.29-1.28,9.49,.2,3.2,1.05,6.37,2.47,9.26,1.42,2.9,3.41,5.5,5.81,7.62,2.4,2.12,5.22,3.75,8.29,4.8,3.07,1.05,6.29,1.48,9.49,1.28,3.2-.2,6.37-1.05,9.26-2.47,2.9-1.42,5.5-3.41,7.62-5.81,2.12-2.4,3.75-5.22,4.8-8.29l.76,.26c-1.08,3.17-2.77,6.08-4.96,8.56-2.19,2.48-4.88,4.54-7.87,6.01-2.99,1.47-6.26,2.34-9.57,2.55-3.31,.21-6.63-.24-9.8-1.32-3.17-1.08-6.08-2.77-8.56-4.96-2.48-2.19-4.54-4.88-6.01-7.87-1.47-2.99-2.34-6.26-2.55-9.57-.21-3.31,.24-6.63,1.32-9.8l.76,.26Z"/><path class="cls-3" d="M33.43,67.79c.29,.16,.58,.3,.87,.45l.44,.21c.07,.04,.15,.07,.22,.1l.23,.1c.6,.26,1.21,.51,1.84,.73,.62,.22,1.25,.42,1.89,.59,.63,.17,1.27,.32,1.92,.44,2.57,.48,5.21,.57,7.8,.23,2.59-.33,5.15-1.06,7.53-2.17,2.38-1.11,4.59-2.59,6.52-4.36l4.49,4.88c-2.43,2.24-5.21,4.1-8.21,5.49-3,1.4-6.21,2.32-9.49,2.74-3.28,.42-6.61,.32-9.86-.29-3.25-.61-6.41-1.73-9.32-3.29l3.14-5.84Z"/><path class="cls-3" d="M21,81.19c2.44,1.67,5.05,3.08,7.77,4.22,1.36,.57,2.75,1.06,4.16,1.49,1.41,.43,2.84,.78,4.29,1.07,2.9,.57,5.86,.83,8.81,.79,2.96-.04,5.91-.38,8.79-1.02l.22,1.01c-2.95,.66-5.97,1.01-9,1.05-3.03,.04-6.06-.23-9.03-.81-1.48-.29-2.95-.65-4.39-1.09-1.44-.44-2.86-.95-4.25-1.53-2.79-1.16-5.46-2.61-7.96-4.32l.58-.85Z"/><path class="cls-3" d="M14.31,76.58c-.07-.07-.13-.13-.21-.21h0s.3-.3,.3-.3h0c.06,.07,.13,.13,.21,.21,.09,.09,.18,.18,.25,.25h0s0,0,0,0l-.3,.3h0c-.1-.1-.18-.18-.26-.26Zm-.39-.4h0c-.04-.05-.08-.09-.12-.14-.11-.11-.22-.23-.33-.34h0s0,0,0,0l.31-.29h0c.11,.12,.22,.23,.32,.34,.04,.04,.08,.09,.13,.13h0s-.3,.3-.3,.3Zm.83,.83l.3-.31h0c.15,.15,.31,.3,.47,.45h0s0,0,0,0l-.29,.31h0c-.16-.15-.32-.3-.48-.46h0Zm.67,.63l.29-.31h0c.16,.15,.32,.3,.48,.44h0s0,0,0,0l-.28,.31h0c-.16-.15-.33-.3-.48-.45h0Zm-2.14-2.14h0c-.15-.16-.3-.33-.44-.49h0s.32-.29,.32-.29h0c.14,.16,.29,.32,.44,.48h0s-.31,.29-.31,.29Zm2.82,2.76l.28-.32h0c.06,.05,.11,.1,.17,.16l.32,.28h0s-.28,.32-.28,.32h0s-.32-.28-.32-.28c-.06-.06-.12-.11-.18-.16h0Zm-3.44-3.45h0c-.15-.16-.29-.33-.44-.5h0s.32-.28,.32-.28h0c.14,.17,.29,.33,.43,.49h0s-.32,.29-.32,.29Zm4.13,4.05l.28-.32,.13,.12,.37,.31-.27,.33-.37-.31-.14-.12Zm-4.74-4.75h0c-.14-.17-.28-.34-.43-.51h0s.33-.27,.33-.27h0s0,0,0,0c.14,.16,.28,.33,.42,.5h0s0,0,0,0l-.32,.28Zm5.45,5.34l.27-.33,.09,.08c.13,.11,.27,.22,.41,.33h0s-.26,.34-.26,.34h0c-.15-.12-.29-.23-.42-.34h0l-.09-.08Zm-6.04-6.05h0c-.14-.17-.28-.35-.41-.51h0s.33-.27,.33-.27h0c.13,.17,.27,.34,.41,.51h0s-.33,.27-.33,.27Zm6.76,6.63l.26-.33h0s0,0,0,0c.02,.01,.03,.02,.05,.04l.34,.26,.13,.1-.26,.34-.14-.11-.34-.27s-.02-.02-.03-.03h-.02Zm-7.34-7.36h0c-.14-.18-.27-.35-.4-.52h0s.34-.26,.34-.26h0c.13,.17,.26,.35,.4,.52h0s0,0,0,0l-.33,.26Zm8.07,7.91l.25-.34h0s-.25,.34-.25,.34h0Zm-8.63-8.64h0c-.13-.18-.27-.36-.39-.53h0s.34-.25,.34-.25h0c.13,.18,.26,.36,.39,.53h0s-.34,.26-.34,.26Zm-.55-.74h0c-.12-.17-.24-.34-.36-.51,0,0-.01-.02-.02-.03h0s.35-.25,.35-.25h0s0,.02,.02,.02h0c.12,.17,.24,.34,.36,.51h0s-.35,.25-.35,.25Zm-.53-.75h0c-.13-.19-.25-.37-.37-.55h0s0,0,0,0l.35-.24h0c.12,.18,.24,.36,.37,.54h0s-.35,.24-.35,.24Zm-.52-.76h0c-.12-.18-.24-.37-.36-.56h0s0,0,0,0l.36-.23h0c.11,.18,.23,.36,.36,.55h0s-.36,.24-.36,.24Zm-.5-.78h0c-.11-.18-.23-.37-.35-.56h0s.36-.22,.36-.22h0c.11,.19,.23,.37,.34,.55h.02s-.01,0-.01,0l-.36,.23Zm-.48-.79h0c-.12-.2-.23-.39-.33-.57h0s0,0,0,0l.37-.21h0c.11,.19,.22,.38,.33,.57h0s-.37,.22-.37,.22Zm-.47-.8h0c-.11-.2-.22-.39-.32-.58h0s0,0,0,0l.37-.2h0s0,0,0,0h0c.11,.19,.21,.38,.32,.57h0s0,0,0,0l-.37,.21Zm-.45-.81h0c-.11-.2-.21-.39-.31-.58h-.02s.02,0,.02,0h0s.37-.2,.37-.2h0c.1,.19,.2,.39,.31,.58h0s0,0,0,0l-.37,.2Zm-.43-.81h0c-.1-.2-.2-.4-.3-.59h0s.38-.19,.38-.19h0c.1,.19,.2,.39,.3,.58h0s0,0,0,0l-.38,.2Zm-.42-.82h0s-.04-.09-.06-.13c-.07-.15-.15-.31-.22-.47h0s0,0,0,0h0s.38-.18,.38-.18h0c.07,.16,.15,.32,.22,.47l.02,.04s.03,.05,.04,.08h0s-.38,.19-.38,.19Zm-.4-.83h0c-.1-.21-.19-.41-.27-.6h-.01s0,0,0,0h0s.39-.17,.39-.17h0c.09,.2,.18,.4,.27,.6h0s-.39,.18-.39,.18Zm-.38-.84h0c-.09-.2-.18-.41-.26-.61h0s.39-.17,.39-.17h0c.08,.2,.17,.4,.26,.6h0s-.39,.18-.39,.18Zm-.36-.85h0c-.08-.2-.17-.41-.25-.61h0s.4-.16,.4-.16h0c.08,.21,.17,.41,.25,.61h0s-.39,.17-.39,.17Zm-.35-.86h0c-.02-.06-.04-.11-.07-.17-.06-.15-.12-.3-.17-.45h0s0,0,0,0l.4-.15h0c.06,.16,.12,.31,.18,.46,.02,.05,.04,.1,.06,.15h0s-.4,.16-.4,.16Zm-.33-.86h0s-.22-.62-.22-.62h0s.4-.15,.4-.15h0s.22,.62,.22,.62h0s-.4,.15-.4,.15Zm-.31-.87h0c-.06-.19-.14-.41-.21-.63h0s.41-.14,.41-.14h0c.07,.22,.14,.43,.21,.62h0s-.4,.14-.4,.14Zm-.29-.87h0c-.06-.19-.12-.38-.17-.55l-.03-.09h0s.4-.12,.4-.12h0s.02,.06,.02,.08c.05,.17,.11,.34,.17,.54h0s0,0,0,0l-.4,.13Zm-.27-.88h0c-.06-.22-.13-.43-.18-.63h0s.41-.12,.41-.12h0c.06,.21,.12,.42,.18,.63h.01s0,0,0,0l-.41,.12Zm-.26-.89h0c-.06-.22-.12-.43-.17-.64h0s.41-.11,.41-.11h0c.05,.21,.11,.42,.17,.63h0s-.41,.12-.41,.12Zm-.24-.89h0c-.06-.22-.11-.44-.16-.64h0s.41-.1,.41-.1h0c.05,.21,.1,.43,.16,.64h0s-.41,.11-.41,.11Zm-.22-.9h0c-.02-.11-.05-.21-.07-.33-.03-.12-.05-.22-.07-.32h0s.42-.09,.42-.09h0c.02,.11,.05,.22,.07,.32,.02,.1,.05,.21,.07,.32h0s-.42,.1-.42,.1Zm-.2-.9h0c-.04-.21-.09-.43-.13-.65h0s0,0,0,0h0s.42-.08,.42-.08h0c.04,.22,.08,.43,.13,.64h0s0,0,0,0l-.41,.09Zm-.18-.9h0c-.04-.23-.08-.44-.12-.65h0s0,0,0,0l.42-.07h0c.04,.21,.08,.43,.12,.65h0s-.42,.08-.42,.08Zm-.16-.91h0c-.04-.22-.07-.44-.1-.65h0s.42-.07,.42-.07h0c.03,.21,.07,.43,.1,.65h0s0,0,0,0l-.42,.07Zm-.14-.91v-.09c-.04-.19-.07-.38-.09-.56h0s0,0,0,0l.43-.05h0c.03,.2,.05,.39,.08,.56v.02s.01,.04,.01,.07h0s0,0,0,0l-.42,.06Zm-.12-.92h0c-.03-.22-.05-.44-.08-.65h0s0,0,0,0h0s.42-.04,.42-.04h0c.02,.22,.05,.44,.07,.65h0s0,0,0,0l-.42,.05Zm-.1-.92h0c-.02-.22-.04-.44-.06-.66h0s.42-.04,.42-.04h0c.02,.22,.04,.44,.06,.65h0s0,0,0,0h0s0,0,0,0h0s-.42,.03-.42,.03Zm-.08-.92h0c-.02-.22-.03-.44-.05-.66h0s0,0,0,0h0s.42-.03,.42-.03h0c.02,.23,.03,.44,.05,.65h0s0,.02,0,.02h0s0,0,0,0h0s-.42,.02-.42,.02Zm-.06-.92h0s0-.09,0-.14c-.01-.17-.02-.35-.03-.52h0s.43-.02,.43-.02h0c0,.18,.02,.37,.03,.54,0,.04,0,.07,0,.11h0s0,0,0,0l-.42,.02Zm-.05-.92l-.02-.67h0s.24,0,.24,0h.19s.02,.65,.02,.65h0s0,0,0,0h-.42Zm-.03-.91h0c0-.26,0-.47,0-.66h0s.43,0,.43,0h0s0,0,0,0c0,.22,0,.44,0,.65h0s0,0,0,0h0s0,0,0,0h0s-.42,0-.42,0Zm0-.92h0c0-.2,0-.37,0-.54h0v-.03s0-.06,0-.09h0s0,0,0,0h.42s0,.01,0,.01c0,.04,0,.08,0,.12h0c0,.17,0,.35,0,.54h0s-.43,0-.43,0Zm.01-.92h0c0-.23,.01-.45,.02-.66h0s0,0,0,0h0s.42,.02,.42,.02h0c0,.22-.02,.44-.02,.66h0s0,0,0,0h-.42Zm.03-.93h0c.01-.22,.02-.44,.04-.66h0s.43,.02,.43,.02h0c-.01,.22-.02,.44-.03,.65h0s-.43-.02-.43-.02Zm.05-.92h0c.01-.22,.03-.44,.05-.66h0s.43,.03,.43,.03h0c-.02,.22-.03,.43-.05,.65h0s-.43-.03-.43-.03Zm.07-.92h0c.02-.22,.04-.44,.06-.66h0s0,0,0,0l.42,.04h0c-.02,.22-.04,.44-.06,.65h0s0,0,0,0l-.42-.04Zm.09-.92h0c.02-.22,.05-.44,.08-.66h0s0,0,0,0l.42,.05h0s0,0,0,0c-.03,.22-.05,.43-.08,.65h0s-.42-.04-.42-.04Zm.11-.92h0c.03-.22,.06-.44,.09-.66h0s0,0,0,0l.42,.06h0c-.03,.22-.06,.43-.09,.65h0s-.42-.05-.42-.05Zm.13-.91h0c.03-.22,.07-.44,.1-.65h0s.42,.07,.42,.07h0c-.04,.22-.07,.43-.1,.64h0s0,0,0,0h0s0,0,0,0l-.41-.06Zm.15-.91h0c.04-.23,.08-.44,.12-.65h0s.42,.08,.42,.08h0c-.04,.21-.08,.42-.12,.65h0s-.42-.07-.42-.07Zm.17-.91h0c.04-.21,.09-.43,.13-.65h0s.42,.08,.42,.08h0c-.04,.22-.09,.43-.13,.64h0s0,0,0,0l-.41-.08Zm.19-.9h0c.05-.22,.09-.43,.14-.64h0s0,0,0,0l.41,.1h0c-.05,.21-.1,.43-.14,.64h0s-.42-.09-.42-.09Zm.2-.9h0c.05-.22,.11-.43,.16-.64h0s.41,.1,.41,.1h0c-.06,.22-.11,.43-.16,.64h0s-.41-.1-.41-.1Zm.22-.9h0c.06-.22,.11-.43,.17-.64h0s0,0,0,0l.41,.11h0c-.06,.21-.12,.42-.17,.63h0s0,0,0,0h0s-.41-.11-.41-.11Zm.24-.89h0c.06-.21,.12-.43,.18-.64h0s.41,.12,.41,.12h0c-.06,.21-.12,.42-.18,.63h0s-.41-.11-.41-.11Zm.26-.88h0c.06-.21,.13-.42,.2-.63h0s0,0,0,0l.4,.13h0c-.07,.21-.13,.42-.2,.63h0s-.41-.12-.41-.12Zm.28-.88h0c.05-.15,.1-.31,.16-.47h0s0,0,0,0l.4,.14h0c-.06,.17-.11,.32-.16,.47h0s-.4-.13-.4-.13Z"/></g><g><path class="cls-3" d="M67.78,47.08v-.16c.14-1.9,.01-3.85-.37-5.79-.37-1.89-1-3.75-1.87-5.52-.87-1.76-1.96-3.4-3.23-4.86-1.31-1.49-2.77-2.78-4.35-3.84l-.14-.09,10.34-15.39,.14,.09c2.93,1.96,5.62,4.33,7.99,7.05,2.33,2.67,4.31,5.66,5.89,8.86,1.58,3.22,2.73,6.61,3.42,10.08,.7,3.53,.93,7.1,.7,10.63v.16s-18.51-1.22-18.51-1.22Zm-6.28-17.68c.36,.36,.72,.74,1.06,1.13,1.29,1.48,2.39,3.14,3.28,4.93,.88,1.8,1.52,3.69,1.9,5.61,.38,1.91,.51,3.83,.4,5.71l17.84,1.18c.22-3.44-.02-6.94-.7-10.38-.68-3.44-1.82-6.8-3.39-10-1.57-3.18-3.53-6.14-5.85-8.79-2.32-2.65-4.94-4.97-7.79-6.9l-9.97,14.85c1.14,.77,2.22,1.67,3.22,2.67Z"/><path class="cls-3" d="M68.7,53.41c1.05-3.07,1.48-6.29,1.28-9.49-.2-3.2-1.05-6.37-2.47-9.26-1.42-2.9-3.41-5.5-5.81-7.62-2.4-2.12-5.22-3.75-8.29-4.8-3.07-1.05-6.29-1.48-9.49-1.28-3.2,.2-6.37,1.05-9.26,2.47-2.9,1.42-5.5,3.41-7.62,5.81-2.12,2.4-3.75,5.22-4.8,8.29l-.76-.26c1.08-3.17,2.77-6.08,4.96-8.56,2.19-2.48,4.88-4.54,7.87-6.01,2.99-1.47,6.26-2.34,9.57-2.55,3.31-.21,6.63,.24,9.8,1.32,3.17,1.08,6.08,2.77,8.56,4.96,2.48,2.19,4.54,4.88,6.01,7.87,1.47,2.99,2.34,6.26,2.55,9.57,.21,3.31-.24,6.63-1.32,9.8l-.76-.26Z"/><path class="cls-3" d="M57.51,23.15c-.29-.16-.58-.3-.87-.45l-.44-.21c-.07-.04-.15-.07-.22-.1l-.23-.1c-.6-.26-1.21-.51-1.84-.73-.62-.22-1.25-.42-1.89-.59-.63-.17-1.27-.32-1.92-.44-2.57-.48-5.21-.57-7.8-.23-2.59,.33-5.15,1.06-7.53,2.17-2.38,1.11-4.59,2.59-6.52,4.36l-4.49-4.88c2.43-2.24,5.21-4.1,8.21-5.49,3-1.4,6.21-2.32,9.49-2.74,3.28-.42,6.61-.32,9.86,.29,3.25,.61,6.41,1.73,9.32,3.29l-3.14,5.84Z"/><path class="cls-3" d="M69.93,9.75c-2.44-1.67-5.05-3.08-7.77-4.22-1.36-.57-2.75-1.06-4.16-1.49-1.41-.43-2.84-.78-4.29-1.07-2.9-.57-5.86-.83-8.81-.79-2.96,.04-5.91,.38-8.79,1.02l-.22-1.01c2.95-.66,5.97-1.01,9-1.05,3.03-.04,6.06,.23,9.03,.81,1.48,.29,2.95,.65,4.39,1.09,1.44,.44,2.86,.95,4.25,1.53,2.79,1.16,5.46,2.61,7.96,4.32l-.58,.85Z"/><path class="cls-3" d="M86.72,59.57h0c.05-.16,.1-.31,.16-.47h0s.41,.13,.41,.13h0c-.05,.15-.1,.3-.16,.47h0s-.4-.14-.4-.14Zm.24-.72h0c.06-.2,.13-.41,.2-.63h0s.41,.12,.41,.12h0c-.06,.21-.13,.42-.2,.63h0s-.41-.13-.41-.13Zm.27-.87h0c.06-.21,.12-.42,.18-.63h0s.41,.11,.41,.11h0c-.06,.21-.12,.42-.18,.64h0s-.41-.12-.41-.12Zm.25-.88h0c.06-.21,.11-.42,.17-.63h0s.41,.1,.41,.1h0c-.06,.22-.11,.43-.17,.64h0s0,0,0,0l-.41-.11Zm.24-.88h0c.05-.21,.11-.42,.16-.63h0s0,0,0,0h0s0,0,0,0h0s.41,.1,.41,.1h0c-.05,.21-.1,.43-.16,.64h0s-.41-.1-.41-.1Zm.22-.89h0c.05-.22,.1-.43,.14-.64h0s.42,.09,.42,.09h0c-.05,.21-.09,.43-.14,.65h0s-.41-.09-.41-.09Zm.2-.89l-.02-.02h.01c.04-.2,.09-.42,.13-.63h0s.42,.08,.42,.08h0c-.04,.21-.09,.43-.13,.65h0s-.41-.08-.41-.08Zm.18-.9h0c.04-.22,.08-.44,.12-.65h0s.42,.07,.42,.07h0c-.04,.22-.08,.44-.12,.65h0s-.42-.08-.42-.08Zm.16-.9h0c.04-.22,.07-.44,.1-.65h0s.42,.06,.42,.06h0c-.03,.22-.07,.44-.1,.65h0s-.42-.07-.42-.07Zm.14-.9h0c.03-.22,.06-.44,.09-.65h0s0,0,0,0l.42,.06h0c-.03,.22-.06,.44-.09,.66h0s-.42-.06-.42-.06Zm.12-.91h0c.03-.21,.05-.43,.08-.65h0s.42,.04,.42,.04h0c-.02,.22-.05,.44-.08,.66h0s-.42-.05-.42-.05Zm.1-.91h0c.02-.22,.04-.43,.06-.65h0s.42,.03,.42,.03h0c-.02,.22-.04,.44-.06,.66h0s-.42-.04-.42-.04Zm.08-.91h0c.02-.22,.03-.43,.05-.65h0s.43,.03,.43,.03h0c-.01,.22-.03,.44-.05,.66h0s-.43-.03-.43-.03Zm.07-.91h0c.01-.23,.02-.45,.03-.65h0s.43,.02,.43,.02h0c-.01,.22-.02,.44-.04,.66h0s-.43-.02-.43-.02Zm.05-.91h0c0-.22,.02-.44,.02-.66h0s.43,0,.43,0h0c0,.23-.01,.45-.02,.66h0s0,0,0,0l-.42-.02Zm.03-.91h0s0-.08,0-.12h0c0-.17,0-.34,0-.54h0s0,0,0,0h.42s0,0,0,0c0,.19,0,.37,0,.54h0s0,.05,0,.07v.05s-.43,0-.43,0Zm0-.91h0c0-.23,0-.45,0-.66h0s.43,0,.43,0h0c0,.27,0,.47,0,.66h0s-.43,0-.43,0Zm-.01-.91l-.02-.66h.43s.02,.65,.02,.65h0s-.24,0-.24,0h-.19Zm-.03-.91h0c0-.18-.02-.36-.03-.54,0-.04,0-.08,0-.12h0s0,0,0,0l.43-.02h0s0,.09,0,.13c.01,.17,.02,.35,.03,.53h0s-.43,.02-.43,.02Zm-.05-.91h0c-.01-.22-.03-.44-.05-.65h0s0,0,0,0l.42-.03h0c.02,.22,.03,.44,.05,.66h0s-.43,.03-.43,.03Zm-.07-.91h0c-.02-.22-.04-.44-.06-.65h0s.42-.05,.42-.05h0c.02,.21,.04,.43,.06,.66h0s-.42,.04-.42,.04Zm-.09-.91h0c-.02-.22-.05-.43-.07-.65h0s.42-.06,.42-.06h0c.03,.22,.05,.44,.08,.66h0s-.42,.05-.42,.05Zm-.11-.91h0c-.02-.18-.05-.37-.08-.56v-.09s.41-.06,.41-.06h0s0,.06,.01,.09c.03,.18,.05,.37,.08,.56h0s-.42,.06-.42,.06Zm-.13-.9h0c-.03-.22-.07-.44-.1-.65h0s0,0,0,0l.42-.07h0c.04,.22,.07,.44,.1,.65h0s0,0,0,0l-.42,.06Zm-.14-.9h0c-.04-.21-.08-.43-.12-.65h0s0,0,0,0l.42-.08h0c.04,.22,.08,.44,.12,.65h0s-.42,.08-.42,.08Zm-.17-.9h0c-.04-.21-.08-.43-.13-.64h0s0,0,0,0h0s0,0,0,0h0s.41-.08,.41-.08h0c.05,.22,.09,.44,.13,.65h0s-.42,.08-.42,.08Zm-.18-.9h0c-.02-.1-.04-.2-.07-.32-.02-.1-.05-.21-.07-.32h0s.42-.1,.42-.1h0c.03,.13,.05,.23,.07,.33,.02,.09,.04,.19,.07,.32h0s0,0,0,0h0s-.41,.09-.41,.09Zm-.2-.89h0c-.05-.21-.1-.42-.16-.64h0s.41-.11,.41-.11h0c.06,.22,.11,.44,.16,.64h0s-.41,.1-.41,.1Zm-.22-.89h0c-.05-.21-.11-.42-.17-.63h0s.41-.12,.41-.12h0c.06,.22,.12,.43,.17,.64h0s-.41,.11-.41,.11Zm-.24-.88h0c-.06-.2-.12-.42-.18-.63h0s.41-.13,.41-.13h0c.06,.22,.13,.43,.18,.64h0s-.41,.12-.41,.12Zm-.26-.88h0s0-.03-.01-.04c0-.02,0-.03-.01-.05-.05-.17-.11-.35-.17-.54h0s.41-.13,.41-.13h0c.06,.21,.12,.38,.17,.55l.03,.09h0s-.4,.12-.4,.12Zm-.28-.87h0c-.07-.22-.15-.44-.21-.62h0s.4-.14,.4-.14h0c.08,.25,.15,.44,.21,.63h0s0,0,0,0l-.4,.13Zm-.29-.86l-.23-.62,.4-.15,.23,.62-.4,.15Zm-.31-.86h0c-.06-.15-.12-.3-.17-.45-.02-.05-.04-.11-.06-.16h0s.4-.16,.4-.16h0c.02,.06,.04,.11,.06,.17,.06,.15,.12,.3,.17,.45h.01s-.01,0-.01,0h0s-.4,.15-.4,.15Zm-.33-.85h0c-.08-.2-.16-.41-.25-.61h0s.39-.17,.39-.17h0c.08,.21,.17,.41,.25,.61h0s-.4,.16-.4,.16Zm-.35-.84h0c-.08-.2-.17-.41-.26-.6h0s.39-.17,.39-.17h0c.09,.21,.18,.41,.26,.61h0s0,0,0,0l-.39,.16Zm-.36-.84h0c-.09-.2-.18-.4-.27-.6h0s.39-.18,.39-.18h0c.09,.2,.18,.4,.27,.6h0s0,0,0,0l-.39,.17Zm-.38-.83h0c-.07-.16-.15-.32-.22-.47-.02-.04-.04-.08-.06-.12h0s.38-.19,.38-.19h0s.03,.06,.04,.09l.02,.04c.07,.15,.15,.31,.23,.47h0s-.39,.19-.39,.19Zm-.4-.82h0c-.1-.2-.2-.39-.3-.58h0s0,0,0,0l.38-.2h0c.1,.19,.2,.39,.3,.59h0s-.38,.19-.38,.19Zm-.42-.81h0c-.1-.19-.21-.39-.31-.58h0s.37-.21,.37-.21h0c.1,.2,.21,.39,.31,.58h0s-.38,.2-.38,.2Zm-.43-.8h0c-.11-.19-.21-.38-.32-.57h0s.37-.21,.37-.21h0c.11,.19,.22,.38,.32,.58h0s-.37,.21-.37,.21Zm-.45-.8h0c-.11-.19-.22-.38-.33-.56h0s.37-.22,.37-.22h0c.11,.19,.22,.38,.34,.57h0s-.37,.22-.37,.22Zm-.47-.79h0c-.11-.19-.23-.38-.34-.56h0s.36-.23,.36-.23h0c.11,.18,.23,.37,.35,.56h0s0,0,0,0l-.36,.22Zm-.48-.78h0c-.12-.19-.24-.37-.36-.55h0s.36-.24,.36-.24h0c.12,.19,.24,.37,.36,.56h0s-.36,.23-.36,.23Zm-.5-.76h0c-.12-.18-.24-.36-.37-.54h0s.35-.25,.35-.25h0c.13,.18,.25,.37,.37,.55h0s-.35,.24-.35,.24Zm-.52-.75h0s-.02-.03-.02-.03c-.12-.17-.24-.34-.36-.51h0s.35-.25,.35-.25h0c.12,.17,.24,.34,.36,.51l.02,.03-.35,.24Zm-.53-.74h0c-.13-.18-.26-.35-.39-.53h0s.34-.26,.34-.26h0c.14,.18,.27,.36,.39,.53h0s-.34,.25-.34,.25Zm-8.94-9.09l.25-.34h0s-.25,.34-.25,.34h0Zm8.4,8.35h0c-.13-.17-.26-.34-.4-.52h0s.33-.27,.33-.27h0c.14,.18,.27,.35,.4,.52h0s-.34,.26-.34,.26Zm-8.19-8.2l.26-.34,.14,.1,.34,.27s.03,.02,.05,.04h0s-.26,.34-.26,.34l-.38-.3-.13-.1Zm7.63,7.48h0c-.14-.17-.28-.35-.41-.51h0s.33-.27,.33-.27h0c.14,.17,.28,.34,.41,.51h0s-.33,.27-.33,.27Zm-6.91-6.92l.26-.34h0c.15,.12,.29,.23,.42,.34h0l.09,.08h0s-.27,.33-.27,.33l-.09-.08c-.13-.11-.26-.22-.41-.33h0Zm6.33,6.2h0c-.14-.17-.28-.34-.42-.5h0s0,0,0,0l.32-.28h0c.14,.17,.29,.34,.43,.51h0s-.33,.28-.33,.28Zm-5.62-5.63l-.02-.02h.02s.27-.31,.27-.31l.37,.31,.14,.12-.28,.32-.13-.12-.37-.31Zm5.03,4.93c-.14-.16-.29-.33-.43-.49h0s.32-.29,.32-.29h0c.14,.16,.29,.33,.44,.5h0s-.32,.28-.32,.28h0s0,0,0,0Zm-4.34-4.34l.28-.32,.32,.28c.07,.06,.12,.11,.18,.16h0s0,0,0,0l-.28,.32h0c-.06-.05-.12-.11-.17-.16l-.32-.28Zm3.73,3.66h0c-.14-.16-.29-.32-.44-.48h0s.31-.29,.31-.29h0c.15,.16,.3,.32,.45,.49h0s-.31,.29-.31,.29Zm-3.05-3.05l.29-.32h0c.16,.15,.32,.3,.48,.45h0s-.29,.31-.29,.31h0c-.16-.15-.32-.3-.48-.44h0Zm2.43,2.38h0c-.11-.12-.22-.23-.32-.34-.04-.04-.09-.09-.13-.13h0s.31-.3,.31-.3h0s.09,.09,.13,.14c.11,.11,.22,.23,.33,.34h0s0,0,0,0l-.31,.29Zm-1.76-1.76h0s.29-.31,.29-.31h0c.16,.15,.32,.3,.48,.46h0s0,0,0,0l-.3,.3h0c-.15-.15-.31-.3-.47-.45Zm.66,.63h0s.3-.3,.3-.3h0c.09,.09,.17,.17,.26,.26,.06,.06,.13,.13,.21,.21h0s-.3,.3-.3,.3h0c-.08-.08-.14-.15-.21-.21-.08-.08-.17-.17-.26-.25h0Z"/></g></g><polygon class="cls-7" points="6.65 25.64 8.18 25.64 8.18 10.07 23.75 10.07 23.75 8.53 6.65 8.53 6.65 25.64"/><polygon class="cls-7" points="66.47 8.53 66.47 10.07 82.04 10.07 82.04 25.64 83.57 25.64 83.57 8.53 66.47 8.53"/><polygon class="cls-7" points="8.18 66.1 6.65 66.1 6.65 83.21 23.75 83.21 23.75 81.67 8.18 81.67 8.18 66.1"/><polygon class="cls-7" points="82.04 81.67 66.47 81.67 66.47 83.21 83.57 83.21 83.57 66.1 82.04 66.1 82.04 81.67"/><g><g><path class="cls-11" d="M34.84,52.86l-9.11,3.6s.79,3.07-1.14,3.15-2.75-.8-2.98-1.14c-.33-.48-2.11-4.03-1.23-6.04,.87-2.02,3.33,0,3.33,0l.7,.96,8.76-3.6s-.58-2.28-.41-2.87l-5.58-.8s-.42,1.71-1.85,1.71c-.5,0-.92-.21-1.24-.48-.61-.51-.95-1.28-.97-2.07-.04-1.19,.01-3.33,.82-4.46,1.15-1.61,2.69-.21,2.69-.21,0,0,.79,.77,.87,1.53l5.35,.38s.91-2.73,1.22-3.14l-5.52-4.64s-2.2,1.19-3.42,.18-.94-2.41-.8-2.79,2.26-3.56,3.97-4.08,2.55,.59,2.55,.59c0,0,.91,1.32,.04,3.07l5.46,4.06c.2-.33-3.4-4.69-3.4-4.69,0,0-.63-1.05,.49-1.99s2.86,1.18,3.32,1.81,2.58,2.72,2.58,2.72c0,0,3.17-1.36,4.46-1.26l.52-6.14s-2.9-.49-2.79-2.93c.1-2.44,4.14-2.58,4.14-2.58,0,0,5.14,.17,4.82,2.75-.31,2.58-2.26,2.66-2.26,2.66v6.19s2.65,.81,3.26,1.19c.14,.09,.31,.06,.42-.06l3.68-4.02s1.01-.98,2.37,0c1.36,.98,0,2.16,0,2.16l-3.51,3.35s.71,.65,.72,.64l4.93-3.89c.15-.11,.19-.31,.11-.48-.29-.59-.79-2,.5-3.11,1.67-1.43,4.12,.9,4.12,.9,0,0,4.33,3.66,1.85,5.79-2.22,1.91-3.49,.21-3.72-.15-.02-.03-.07-.04-.1-.01l-5.45,5.05s.61,1.13,.77,1.79l4.48-.47-3.91,2.04s.2,2.29,.18,2.55l5.61-.29s-.53-4.86,1.74-5.15,2.31,3.09,2.31,3.09c0,0,.42,4.15-.8,4.47s-3.03,.39-3.14-1.01l-5.97,.32s-.16,1.98-.42,2.56l8.77,3.69s1.66-2.36,3.57-.98c2.33,1.68-1.14,6.69-1.14,6.69,0,0-1.81,1.76-3.27,.62s-.99-3-.99-3l-8.61-3.83s-1.24,1.61-1.45,1.45,2.44,2.67,2.44,2.67l-.95,.78-2.55-2.41s-1.6,1.83-4.53,2.52l.82,3.2-1.34,.43-.92-3.13-2.64,.17-1.27,6.79s1.73,.59,1.31,2.61-2.94,1.83-2.94,1.83c0,0-3.98-.19-4.99-2.31-1.01-2.12,.16-3.26,.16-3.26,0,0,.98-.78,3-.2l1.27-6.23s-1.76-.16-3.1-1.07l-4.4,4.73s.82,2.25,.1,3.13c-.72,.88-2.87,.59-3.62-.13s-3.04-2.93-3.04-3.46,.19-2.35,1.43-2.55,2.38,.55,2.38,.55l4.27-4.77s-1.18-.76-1.18-1.23Z"/><path class="cls-12" d="M51.53,66.52c-.15,.04-.3,.07-.46,.08-.82,.04-3.3,.01-2.55-1.99s2.87-2.37,3.71-2.48c.24-.03,.49-.02,.73,.03,.46,.1,1.24,.37,1.7,1.07,.51,.77,.9,2.09-.48,2.51-1.07,.33-2.21,.65-2.66,.78Z"/><path class="cls-11" d="M59.76,56.99c.13-.09,.27-.16,.41-.22,.77-.3,3.12-1.07,3.05,1.07-.07,2.03-1.96,3.16-2.73,3.53-.22,.11-.45,.18-.7,.21-.47,.05-1.29,.04-1.96-.47-.74-.57-1.52-1.69-.35-2.53,.91-.65,1.88-1.32,2.27-1.59Z"/></g><path class="cls-11" d="M58.6,45.16c.19,7.17-5.7,12.89-12.86,12.88-7.11-.01-12.87-5.75-12.88-12.86s5.75-12.87,12.86-12.88c7.11,0,12.69,5.75,12.88,12.86Z"/></g></g></g></g></g></g></svg>