<?xml version="1.0" encoding="UTF-8"?><svg id="Calque_2" xmlns="http://www.w3.org/2000/svg" viewBox="0 0 507.91 46.7"><defs><style>.cls-1{fill:#fff;}</style></defs><g id="Calque_3"><g><path class="cls-1" d="M33.97,27.02h11.69l-.26,1.1c-.71,3.25-2.21,6.37-4.29,9.03-2.01,2.6-4.68,4.81-7.6,6.3-.52,.26-1.04,.52-1.56,.71-2.86,1.17-5.85,1.75-8.96,1.75-6.11,0-11.89-2.4-16.24-6.76C2.4,34.82,0,29.04,0,22.93c0-2.6,.45-5.2,1.3-7.66l.45-1.36,9.61,9.61v.33c.19,2.73,1.36,5.33,3.31,7.27,1.95,1.95,4.55,3.12,7.27,3.31,.52,.06,1.1,.06,1.62,.06,1.17-.06,2.34-.32,3.44-.71,.39-.13,.71-.26,1.04-.46,1.1-.58,2.14-1.3,3.05-2.21,1.1-1.1,1.95-2.34,2.53-3.77l.32-.33ZM12.02,18.84L3.64,10.46l.46-.58C8.38,3.7,15.46,0,22.99,0c5.26,0,10.39,1.82,14.49,5.13,4.03,3.25,6.82,7.79,7.92,12.8l.26,1.1h-11.69l-.26-.52c-.58-1.43-1.43-2.66-2.53-3.77-2.21-2.21-5.13-3.44-8.25-3.44s-6.04,1.23-8.25,3.44c-.91,.91-1.62,1.95-2.21,3.05l-.46,1.04Z"/><path class="cls-1" d="M90.88,1.36V45.99h-11.04V29.23h-12.99l-14.88-14.88V1.3h11.04V9.74l8.38,8.38h8.44V1.3l11.04,.06ZM51.97,19.36l11.04,11.04v15.52h-11.04V19.36Z"/><path class="cls-1" d="M116.47,14.55l6.43,10.65-12.6,20.72h-12.93l19.1-31.37Zm36.05,31.44h-12.93l-2.66-4.42-18.38-30.46L124.98,.52l27.54,45.47Z"/><path class="cls-1" d="M204.55,45.99h-17.15l-.26-.26-17.15-17.08v.06l-11.04-11.04V1.36h29.81c.84,0,1.69,.07,2.53,.26,2.53,.52,4.81,1.75,6.63,3.57,1.69,1.69,2.86,3.83,3.44,6.17,.26,.97,.39,2.01,.39,3.05,0,.46,0,.91-.06,1.36-.13,3.57-1.56,6.88-4.03,9.35-2.53,2.53-5.91,3.96-9.48,4.03h-.71l17.08,16.82Zm-45.47-23.45l11.04,11.04v12.28h-11.04V22.54Zm27.67-4.48c.26,0,.52,0,.78-.07,.19-.06,.39-.13,.58-.19,.52-.2,.97-.52,1.36-.91,.06-.07,.13-.13,.19-.2,.06-.07,.13-.13,.19-.2,.06-.06,.06-.13,.06-.19,.06-.13,.13-.26,.2-.39,.19-.52,.32-1.04,.32-1.62v-.39c0-.13,0-.26-.06-.39-.06-.2-.13-.39-.19-.58h-19.36l5.26,5.26h10.59l.06-.13Z"/><path class="cls-1" d="M227.55,14.55l6.43,10.65-12.6,20.72h-12.93l19.1-31.37Zm36.05,31.44h-12.93l-2.66-4.42-18.38-30.46,6.43-10.59,27.54,45.47Z"/><path class="cls-1" d="M298.36,27.02h11.69l-.26,1.1c-.71,3.25-2.21,6.37-4.29,9.03-2.01,2.6-4.68,4.81-7.6,6.3-.52,.26-1.04,.52-1.56,.71-2.86,1.17-5.85,1.75-8.96,1.75-6.11,0-11.89-2.4-16.24-6.76-4.35-4.35-6.76-10.13-6.76-16.24,0-2.6,.45-5.2,1.3-7.66l.45-1.36,9.61,9.61v.33c.2,2.73,1.36,5.33,3.31,7.27s4.55,3.12,7.28,3.31c.52,.06,1.1,.06,1.62,.06,1.17-.06,2.34-.32,3.44-.71,.39-.13,.71-.26,1.04-.46,1.1-.58,2.14-1.3,3.05-2.21,1.1-1.1,1.95-2.34,2.53-3.77l.32-.33Zm-21.96-8.18l-8.38-8.38,.46-.58c4.29-6.17,11.37-9.87,18.9-9.87,5.26,0,10.39,1.82,14.49,5.13,4.03,3.25,6.82,7.79,7.92,12.8l.26,1.1h-11.69l-.26-.52c-.58-1.43-1.43-2.66-2.53-3.77-2.21-2.21-5.13-3.44-8.25-3.44s-6.04,1.23-8.25,3.44c-.91,.91-1.62,1.95-2.21,3.05l-.46,1.04Z"/><path class="cls-1" d="M360.98,1.3V12.34h-16.82V28.78l-11.04-11.04v-5.39h-16.76V1.3h44.62Zm-27.87,21.5l11.04,11.04v12.08h-11.04V22.8Z"/><path class="cls-1" d="M380.92,29.3l-13.51-13.51V1.36h37.29V12.41h-25.01l5.78,5.78h19.23v11.04l-23.77,.07Zm23.77,5.65v11.04h-37.22V20.72l11.04,11.04v3.12l26.18,.07Z"/><path class="cls-1" d="M456.79,45.99h-17.15l-.26-.26-17.15-17.08v.06l-11.04-11.04V1.36h29.82c.84,0,1.69,.07,2.53,.26,2.53,.52,4.81,1.75,6.63,3.57,1.69,1.69,2.86,3.83,3.44,6.17,.26,.97,.39,2.01,.39,3.05,0,.46,0,.91-.06,1.36-.13,3.57-1.56,6.88-4.03,9.35-2.53,2.53-5.91,3.96-9.48,4.03h-.71l17.08,16.82Zm-45.47-23.45l11.04,11.04v12.28h-11.04V22.54Zm27.67-4.48c.26,0,.52,0,.78-.07,.2-.06,.39-.13,.58-.19,.52-.2,.97-.52,1.36-.91,.06-.07,.13-.13,.19-.2l.2-.2c.06-.06,.06-.13,.06-.19,.07-.13,.13-.26,.2-.39,.19-.52,.32-1.04,.32-1.62v-.39c0-.13,0-.26-.06-.39-.07-.2-.13-.39-.2-.58h-19.36l5.26,5.26h10.59l.07-.13Z"/><path class="cls-1" d="M506.94,28.78c.39,1.3,.58,2.66,.58,4.03s-.2,2.73-.58,4.03c-.84,2.79-2.6,5.33-4.94,7.08-2.4,1.82-5.33,2.79-8.38,2.79h-30.72v-11.04h30.72c1.56,0,2.86-1.3,2.86-2.86s-1.3-2.86-2.86-2.86h-16.82c-1.36,0-2.73-.19-4.03-.58-2.21-.65-4.22-1.88-5.85-3.51s-2.86-3.64-3.51-5.85c-.39-1.3-.58-2.66-.58-4.03s.2-2.73,.58-4.03c.65-2.21,1.88-4.22,3.51-5.85s3.64-2.86,5.85-3.51c.33-.13,.65-.19,.97-.26l.45-.13,10.85,10.85h-8.25c-1.56,0-2.86,1.3-2.86,2.86s1.3,2.86,2.86,2.86h19.94c.13,0,.26,.07,.39,.13h.07l.13,.06h.2c.13,.07,.26,.13,.39,.2h.06c.26,.06,.52,.13,.78,.19h.07c.13,.07,.26,.13,.39,.2h.06c.2,.06,.39,.13,.58,.19h.2c.13,.07,.26,.13,.39,.2,.19,.13,.39,.26,.58,.39l.33,.19c.13,.07,.26,.13,.39,.2,.13,.06,.26,.13,.39,.19l.07,.07c.26,.2,.52,.39,.78,.58,.06,.06,.19,.13,.32,.26,.07,.06,.13,.13,.2,.19l.13,.13c.06,0,.13,0,.2,.07l.19,.19,.58,.58c.06,.06,.13,.13,.19,.2l.13,.13v.19l.2,.2,.06,.06c.07,.13,.13,.26,.2,.39,.06,.07,.13,.13,.19,.2,.07,.06,.13,.13,.2,.19l.07,.13c.19,.39,.39,.78,.58,1.17l.07,.06,.39,.78,.06,.13,.2,.58v.2l.19,.45-.39,.71Zm.97-27.48V12.34h-17.41l-11.04-11.04h28.45Z"/></g></g></svg>