<?xml version="1.0" encoding="UTF-8"?><svg id="Calque_2" xmlns="http://www.w3.org/2000/svg" viewBox="0 0 414.11 45.92"><defs><style>.cls-1{fill:#1b1734;}</style></defs><g id="Calque_3"><g><path class="cls-1" d="M11.04,1.23V17.8L0,6.76V1.23H11.04ZM0,11.82l11.04,11.04v23H0V11.82Z"/><path class="cls-1" d="M62.03,1.23V45.86h-11.04V26.18l-11.24,11.3-11.24-11.3-11.04-11.04V1.23h1.75l20.59,20.59L60.41,1.23h1.62ZM17.54,20.2l11.04,11.04v14.62h-11.04V20.2Z"/><path class="cls-1" d="M104.91,11.24c.26,.97,.39,2.01,.39,3.05,0,2.99-.97,5.78-2.79,8.12-.32,.39-.65,.78-1.04,1.17-2.47,2.47-5.72,3.83-9.22,3.83h-13.84l-9.74-9.74V1.36h23.64c3.51,0,6.76,1.36,9.22,3.83,1.69,1.69,2.86,3.83,3.44,6.17l-.06-.13Zm-36.25,11.37l11.04,11.04v12.02h-11.04V22.6Zm24.49-5.98c.52-.65,.78-1.43,.78-2.27,0-.33-.06-.65-.13-.91-.13-.65-.46-1.23-.97-1.75-.71-.71-1.69-1.1-2.73-1.1h-10.46v1.49l6.04,6.04h4.35c1.04,0,2.01-.39,2.73-1.1,.13-.13,.26-.26,.32-.39h.06Z"/><path class="cls-1" d="M140.7,32.61l7.86,7.86-.78,.65c-3.96,3.05-8.7,4.68-13.71,4.68-5.98,0-11.56-2.34-15.78-6.56-4.22-4.22-6.56-9.81-6.56-15.78,0-5,1.62-9.74,4.68-13.71l.65-.78,7.86,7.86-.39,.58c-1.1,1.75-1.69,3.83-1.69,5.98,0,2.99,1.17,5.78,3.31,7.92,2.14,2.14,4.94,3.31,7.92,3.31,2.14,0,4.22-.58,5.98-1.69l.65-.32Zm9.16-24.94c4.22,4.22,6.56,9.81,6.56,15.78,0,5-1.62,9.74-4.68,13.71l-.65,.78-7.86-7.86,.39-.58c1.1-1.75,1.69-3.83,1.69-5.98,0-2.99-1.17-5.78-3.31-7.92s-4.94-3.31-7.92-3.31c-2.14,0-4.22,.58-5.98,1.69l-.58,.39-7.86-7.86,.78-.65c3.96-3.05,8.7-4.68,13.71-4.68,5.98,0,11.56,2.34,15.78,6.56l-.06-.06Z"/><path class="cls-1" d="M208.45,45.92h-17.15l-.26-.26-17.15-17.08v.06l-11.04-11.04V1.3h29.81c.84,0,1.69,.07,2.53,.26,2.53,.52,4.81,1.75,6.63,3.57,1.69,1.69,2.86,3.83,3.44,6.17,.26,.97,.39,2.01,.39,3.05,0,.46,0,.91-.06,1.36-.13,3.57-1.56,6.88-4.03,9.35-2.53,2.53-5.91,3.96-9.48,4.03h-.71l17.08,16.82Zm-45.47-23.45l11.04,11.04v12.28h-11.04V22.47Zm27.67-4.48c.26,0,.52,0,.78-.07,.19-.06,.39-.13,.58-.19,.52-.2,.97-.52,1.36-.91,.06-.07,.13-.13,.19-.2,.06-.07,.13-.13,.19-.2,.06-.06,.06-.13,.06-.19,.06-.13,.13-.26,.2-.39,.19-.52,.32-1.04,.32-1.62v-.39c0-.13,0-.26-.06-.39-.06-.2-.13-.39-.19-.58h-19.36l5.26,5.26h10.59l.06-.13Z"/><path class="cls-1" d="M259.57,1.23V12.28h-16.82V28.71l-11.04-11.04v-5.39h-16.76V1.23h44.62Zm-27.87,21.5l11.04,11.04v12.08h-11.04V22.73Z"/><path class="cls-1" d="M279.32,14.49l6.43,10.65-12.6,20.72h-12.93l19.1-31.37Zm36.05,31.44h-12.93l-2.66-4.42-18.38-30.46,6.43-10.59,27.54,45.47Z"/><path class="cls-1" d="M362.99,0V45.92h-10.39l-.46-.46-12.15-12.15-7.08-7.08-11.04-11.04V1.3h1.75l.26,.26,28.06,28.06V11.04l.26-.26,10.78-10.78Zm-41.12,20.2l11.04,11.04v14.62h-11.04V20.2Z"/><path class="cls-1" d="M414.11,1.23V12.28h-16.82V28.71l-11.04-11.04v-5.39h-16.76V1.23h44.62Zm-27.87,21.5l11.04,11.04v12.08h-11.04V22.73Z"/></g></g></svg>