<?xml version="1.0" encoding="UTF-8"?><svg id="Calque_2" xmlns="http://www.w3.org/2000/svg" viewBox="0 0 497.94 149.26"><defs><style>.cls-1{fill:#fff;}</style></defs><g id="Calque_2-2"><g><path class="cls-1" d="M99.12,75.08c-.33-.49-.49-1.09-.49-1.81v-17.43l-.19-15.67c-.2-6.99-.29-12.21-.29-15.67l.1-2.84v-6.37c0-7.05-.07-10.58-.2-10.58h-11.07c-.52,0-1-.13-1.42-.39-.43-.26-.64-.62-.64-1.08,0-.52,.1-.88,.29-1.08s.72-.36,1.57-.49c.91-.2,2.22-.29,3.92-.29h9.8l10.77-.1c.78,0,1.32,.13,1.62,.39s.44,.69,.44,1.27c0,.98-.62,1.47-1.86,1.47h-8.71l-.88,.1,.1,5.68v55.54l.1,7.25v.2c0,.52-.03,.96-.1,1.32-.07,.36-.2,.64-.39,.83-.2,.32-.52,.49-.98,.49-.65,0-1.15-.24-1.47-.74Z"/><path class="cls-1" d="M138.1,75.81c-.2-.26-.29-.65-.29-1.17v-1.18c.06-.26,.1-.62,.1-1.08,0-8.95-.33-20.28-.98-33.99h-4.41c-3.66,0-5.94,.1-6.86,.29,0,4.77,.26,10.68,.78,17.73,.59,8.03,.88,13.94,.88,17.73,0,.98-.36,1.47-1.08,1.47-.98,0-1.47-.45-1.47-1.37-.06-3.2-.21-7.62-.44-13.27-.23-5.65-.44-10.43-.64-14.35-1.24-15.54-1.86-30.43-1.86-44.66,0-.65,.43-.98,1.28-.98,.39,0,.7,.11,.93,.34,.23,.23,.31,.54,.24,.93v7.25c0,1.76,.16,5.09,.49,9.99l.2,3.33c.13,3.66,.2,5.84,.2,6.56v4.8c0,1.7,.16,2.55,.49,2.55l3.72-.2,1.96-.19c3.27-.26,5.13-.39,5.58-.39l.1-.19c0-2.87-.16-8.39-.49-16.55-.33-8.29-.49-13.84-.49-16.65,0-.78,.45-1.18,1.37-1.18,.45,0,.85,.11,1.17,.34,.33,.23,.49,.54,.49,.93,0,12.73,.23,26.74,.69,42.02,.45,15.35,.69,24.75,.69,28.21v1.37c0,.52-.12,.98-.34,1.37-.23,.39-.54,.59-.93,.59-.52,0-.88-.13-1.08-.39Z"/><path class="cls-1" d="M155.58,75.37c-.62-.29-.93-.86-.93-1.71v-1.86c-.06-.52-.1-1.11-.1-1.76v-.2l.1-14.3-.1-40.45c0-4.18-.06-7.8-.19-10.87,0-.78,.16-1.43,.49-1.96,.33-.52,.75-.78,1.27-.78h6.07c.91,0,1.6,.07,2.06,.2,.65,.2,.98,.75,.98,1.67,0,.52-.2,.95-.59,1.27-.39,.33-.82,.52-1.27,.59h-1.66l-1.57-.1-1.57-.1c-.46,0-.77,.08-.93,.24s-.24,.48-.24,.93c0,3.07,.03,5.84,.1,8.32v20.57c0,.13,.07,.19,.2,.19h.2c1.63-.13,3.39-.19,5.29-.19,1.04,0,1.56,.46,1.56,1.37,0,.65-.11,1.09-.34,1.32-.23,.23-.6,.34-1.13,.34h-5.58c-.26,0-.39,.16-.39,.49l.19,14.49c.13,4.51,.2,9.7,.2,15.58v3.62h9.21c1.18,0,1.76,.43,1.76,1.27,0,1.04-.29,1.67-.88,1.86-.78,.26-2.38,.39-4.8,.39h-4.12c-1.56,0-2.66-.15-3.28-.44Z"/><path class="cls-1" d="M205.58,76.01c-.78-.2-1.15-.29-1.08-.29-1.17-4.83-2.48-12.05-3.92-21.65l-5.39-34.97-.88-4.31c-1.43-5.62-2.15-9.57-2.15-11.85,0-.46,.15-.86,.44-1.22,.29-.36,.6-.54,.93-.54,.2,0,.43,.06,.69,.19,.32,.13,.62,.49,.88,1.08,.26,.52,.39,1.01,.39,1.47l.19,1.37,1.37,7.54,.88,5.19,4.9,33.6,1.27,9.3c.52,3.13,.95,6.11,1.27,8.91l.69-6.95,1.08-11.26,2.35-21.45c.59-6.07,1.01-10.05,1.28-11.95l.49-5.09,.69-4.9c.33-1.96,.55-3.79,.69-5.49,.13-1.24,.75-1.86,1.86-1.86l.59,.39h-.2l.98,.78c0,1.89-.26,4.67-.78,8.33l-.59,3.82-.29,2.45c-.85,7.12-1.37,11.56-1.57,13.32-.98,8.29-2.01,17.27-3.08,26.93-1.08,9.67-1.65,15.35-1.71,17.04-.52,1.43-1.15,2.15-1.86,2.15l-.39-.1Zm-.1-5.58l-.1-.29-.2,.29h.29Z"/><path class="cls-1" d="M228.7,74.73c-.46,0-.87-.16-1.22-.49-.36-.33-.54-.69-.54-1.08,0-.85,.56-1.28,1.67-1.28h3.82c0-7.51-.23-16.98-.69-28.4-.26-9.14-.52-16.32-.78-21.55l.1-5v-6.46c0-3.27-.07-5.35-.2-6.27h-3.43c-.65,0-.98-.45-.98-1.37,0-.59,.26-1.04,.78-1.37,.46-.2,1.67-.29,3.62-.29h2.74c.98,.06,2.22,.1,3.72,.1,.52,0,.95,.12,1.27,.34,.33,.23,.49,.57,.49,1.03,0,.39-.1,.75-.29,1.08-.2,.33-.49,.49-.88,.49-.46,0-.85-.03-1.17-.1h-2.15c-.65,0-1.05,.07-1.18,.2l-.19,.39c0,5.09,.42,15.38,1.27,30.85,.78,14.3,1.17,24.58,1.17,30.85v2.74c-.07,.85-.1,1.73-.1,2.65h3.53c1.5,0,2.25,.46,2.25,1.37,0,.39-.15,.77-.44,1.13-.29,.36-.6,.54-.93,.54h-5.29c-1.57-.06-3.56-.1-5.98-.1Z"/><path class="cls-1" d="M268.56,74.24l-1.17-4.31c-1.83-6.07-3.17-11.2-4.02-15.38-.52-2.28-1.17-5.45-1.96-9.5-.91-4.7-1.76-8.52-2.55-11.46l-.98,.59-1.27,.59,.2,37.71v1.47c0,1.3-.59,1.96-1.76,1.96-.52,0-.95-.16-1.27-.49-.33-.32-.49-.72-.49-1.17v-1.47l.2-19.78,.2-9.5c.26-11.43,.39-21.16,.39-29.19V1.67c0-.59,.59-.88,1.76-.88,1.7,0,3.28,.46,4.75,1.37,1.47,.92,2.63,2.15,3.48,3.72,1.76,3.2,2.65,6.69,2.65,10.48,0,3.01-.65,6.27-1.96,9.8-.39,.98-.88,2.1-1.47,3.38-.59,1.27-1.11,2.14-1.57,2.6,1.37,5.03,3.36,12.77,5.97,23.21l4.6,17.63c.06,.2,.1,.56,.1,1.08,0,.59-.11,1.09-.34,1.52-.23,.42-.57,.64-1.03,.64-1.31,0-2.12-.65-2.45-1.96Zm-9.4-44.57c1.24-1.24,2.12-2.28,2.65-3.14,.45-.91,.85-2.28,1.17-4.11,.33-1.83,.49-3.46,.49-4.9,0-2.68-.46-5.42-1.37-8.23-.46-1.63-1.14-2.95-2.06-3.97-.91-1.01-1.93-1.52-3.04-1.52h-.19c-.07,.07-.16,.1-.29,.1V31.54c.52,0,1.4-.62,2.64-1.86Z"/><path class="cls-1" d="M290.89,76.11c-1.31-.65-2.39-1.5-3.23-2.55-.85-.98-1.6-2.19-2.25-3.62-.65-1.43-1.17-2.87-1.57-4.31-.65-2.22-1.14-5-1.47-8.32l-.2-3.04c0-.65-.02-1.08-.05-1.27-.03-.2-.05-.33-.05-.39-.33-3.2-.74-10.25-1.22-21.15-.49-10.9-.73-19.4-.73-25.47v-1.47c0-1.7,.49-2.55,1.47-2.55,1.37,0,2.06,.78,2.06,2.35v.69l-.1,.78c0,7.57,.23,16.54,.69,26.89,.46,10.35,.91,17.81,1.37,22.38,.33,2.87,.88,5.81,1.67,8.82,.52,2.02,1.09,3.72,1.71,5.09,.62,1.37,1.42,2.52,2.4,3.43,1.17,1.04,2.32,1.57,3.43,1.57s2.11-.26,2.99-.78c.88-.52,1.55-1.21,2.01-2.06,.46-.72,.83-1.65,1.13-2.79,.29-1.14,.47-2.24,.54-3.28,.06-.65,.1-1.73,.1-3.23v-11.16c0-4.96-.13-11.07-.39-18.32l-.39-12.54-.2-8.33c-.19-3.66-.29-6.43-.29-8.32,0-.72,.19-1.27,.59-1.67,.39-.39,.85-.59,1.37-.59s.96,.2,1.32,.59c.36,.39,.54,.95,.54,1.67v7.44c0,3.27,.03,6.2,.1,8.81v8.82c0,6.33,.06,11.88,.2,16.65,.06,4.83,.1,10.25,.1,16.26,0,1.63-.07,3.07-.2,4.31-.13,1.24-.39,2.55-.78,3.92-.39,1.57-.93,2.89-1.62,3.97-.69,1.08-1.58,1.97-2.69,2.69-1.24,.72-2.61,1.08-4.11,1.08s-2.91-.33-4.21-.98Z"/><path class="cls-1" d="M319.83,77.23c-.62-.1-1.29-.31-2.01-.64-.78-.39-1.37-.95-1.76-1.67,0-.78,.36-1.17,1.08-1.17s1.63,.23,2.74,.69c1.04,.52,1.93,.78,2.64,.78,1.44,0,2.76-.59,3.97-1.76,1.21-1.17,2.14-2.71,2.79-4.6,1.3-3.72,1.96-7.02,1.96-9.89,0-3.2-.46-6.43-1.37-9.7-.91-3.27-2.12-6.33-3.62-9.21-.33-.72-.88-1.8-1.66-3.23-1.63-3.27-2.87-5.81-3.72-7.64-.85-1.83-1.6-3.85-2.25-6.07-.92-2.94-1.37-6.11-1.37-9.5,0-2.15,.34-4.23,1.03-6.22,.69-1.99,1.78-3.7,3.28-5.14,1.63-1.5,3.46-2.25,5.48-2.25,.78,0,1.73,.31,2.84,.93,1.11,.62,1.67,1.22,1.67,1.81,0,.52-.2,.78-.59,.78s-.92-.16-1.57-.49c-.59-.33-1.14-.49-1.67-.49-1.5,0-2.82,.56-3.97,1.66-1.14,1.11-1.97,2.48-2.5,4.12-.46,1.37-.69,2.87-.69,4.5,0,2.55,.33,5.18,.98,7.89,.65,2.71,1.53,5.24,2.64,7.59l3.43,7.15,.98,2.06c1.37,2.81,2.43,5.13,3.18,6.95,.75,1.83,1.39,3.89,1.91,6.17,.72,3.07,1.08,6.01,1.08,8.82,0,3.79-.98,7.64-2.94,11.56-.98,1.89-2.28,3.43-3.92,4.6-1.63,1.18-3.43,1.76-5.39,1.76-1.17,0-2.07-.05-2.69-.15Z"/><path class="cls-1" d="M363.66,30.17v-3.92c0-5.49,.32-10.25,.98-14.3,.39-2.55,.93-4.64,1.62-6.27,.69-1.63,1.62-2.94,2.79-3.92,1.11-1.11,2.55-1.67,4.31-1.67,1.57,0,3,.31,4.31,.93,1.31,.62,2.38,1.42,3.23,2.4,.72,.92,1.37,2.12,1.96,3.62,.59,1.5,1.04,2.94,1.37,4.31l.78,4.6c1.57,11.17,2.35,21.06,2.35,29.68v.29c0,3.27-.07,6.27-.2,9.01-.13,3.27-.49,6.69-1.08,10.29-.26,1.76-.64,3.3-1.13,4.6-.49,1.31-1.13,2.61-1.91,3.92-1.37,2.35-3.3,3.53-5.78,3.53-9.08,0-13.61-15.7-13.61-47.11Zm16.65,42.56c.85-1.21,1.5-2.89,1.96-5.05,1.04-4.57,1.7-9.04,1.96-13.42,.13-3.53,.2-6.95,.2-10.29v-.39l-.1-9.8c-.13-3.53-.52-8.1-1.17-13.71-.52-3.98-1.6-8.06-3.23-12.24-.65-1.63-1.52-2.9-2.6-3.82-1.08-.91-2.24-1.37-3.48-1.37-1.11,0-2.09,.52-2.94,1.56-.85,1.05-1.54,2.52-2.06,4.41-1.17,4.38-1.83,8.43-1.96,12.14-.2,3.2-.29,6.5-.29,9.89v4.8c0,4.38,.42,9.93,1.27,16.65,.52,4.25,1.17,7.93,1.96,11.07,.78,3.14,1.83,5.78,3.14,7.93,1.3,2.29,2.81,3.43,4.51,3.43,1.04,0,1.99-.6,2.84-1.81Z"/><path class="cls-1" d="M403.04,72.87v-7.25l-.29-5.98c-.59-10.71-.88-18.57-.88-23.6,0-2.74-.36-11.29-1.08-25.66-.13-3.14-.23-5.14-.29-6.02-.07-.88-.1-1.36-.1-1.42v-.69c0-.46,.32-.75,.98-.88,.39-.13,1.54-.19,3.43-.19h4.9c.52,0,.91,.21,1.17,.64,.26,.43,.39,.96,.39,1.62s-.59,.98-1.76,.98l-2.25-.1h-2.55c-.52,0-.85,.1-.98,.29s-.2,.72-.2,1.57c0,1.31,.23,6.07,.69,14.3,.46,8.23,.69,13.03,.69,14.4,.78,0,1.89-.2,3.33-.59,1.5-.39,2.61-.59,3.33-.59,.39,0,.74,.23,1.03,.69,.29,.46,.44,.88,.44,1.28,0,.72-.52,1.19-1.57,1.42-1.04,.23-2.55,.41-4.5,.54-1.37,.2-2.06,.59-2.06,1.17,0,2.94,.33,8.43,.98,16.45,.59,7.31,.88,12.83,.88,16.56l-.29,.49c.2,.46,.29,.88,.29,1.27,0,1.24-.72,1.86-2.15,1.86-1.05,0-1.57-.85-1.57-2.55Z"/></g><g><path class="cls-1" d="M37.01,127.09h12.74l-.28,1.29c-.78,3.8-2.41,7.44-4.67,10.56-2.19,3.04-5.09,5.62-8.28,7.37-.57,.3-1.13,.61-1.7,.84-3.11,1.37-6.37,2.05-9.77,2.05-6.65,0-12.95-2.81-17.69-7.9-4.74-5.09-7.36-11.85-7.36-18.99,0-3.04,.5-6.08,1.42-8.96l.5-1.6,10.47,11.24v.38c.21,3.19,1.49,6.23,3.61,8.51,2.12,2.28,4.95,3.65,7.93,3.87,.57,.08,1.2,.08,1.77,.08,1.27-.08,2.55-.38,3.75-.84,.42-.15,.78-.3,1.13-.53,1.2-.68,2.34-1.52,3.33-2.58,1.2-1.29,2.12-2.73,2.76-4.41l.35-.38Zm-23.92-9.57l-9.13-9.8,.5-.68c4.67-7.22,12.38-11.54,20.59-11.54,5.73,0,11.32,2.13,15.78,6,4.39,3.8,7.43,9.11,8.63,14.96l.28,1.29h-12.74l-.28-.61c-.64-1.67-1.56-3.11-2.76-4.41-2.41-2.58-5.59-4.03-8.99-4.03s-6.58,1.44-8.99,4.03c-.99,1.06-1.77,2.28-2.41,3.57l-.5,1.22Z"/><path class="cls-1" d="M115.98,97.01l-26.82,28.79v12.91l-1.63-1.75-10.4-11.17-26.82-28.79h17.05l.28,.3,15.5,16.63,15.78-16.94h17.05Zm-38.92,34.71l12.03,12.91v4.56h-12.03v-17.47Z"/><path class="cls-1" d="M164.94,112.12c0,4.03-1.49,7.9-4.1,10.79,2.62,2.89,4.1,6.76,4.1,10.79,0,1.29-.14,2.58-.42,3.8-1.49,6.38-6.58,11.01-12.74,11.54h-28.87v-24.68l12.03,12.91v.53h13.09c2.05,0,3.68-1.75,3.68-3.95s-1.63-3.95-3.68-3.95h-13.09v1.52l-12.03-12.91v-21.57h27.81c6.58,0,12.31,4.78,13.94,11.62,.28,1.22,.42,2.51,.42,3.8l-.14-.23Zm-30,.84l3.18,3.42h9.84c2.05,0,3.68-1.75,3.68-3.95s-1.63-3.95-3.68-3.95h-13.09l.07,4.48Z"/><path class="cls-1" d="M186.81,129.74l-14.72-15.8v-16.86h40.62v12.91h-27.24l6.3,6.76h20.95v12.91l-25.9,.08Zm25.9,6.61v12.91h-40.55v-29.55l12.03,12.91v3.65l28.52,.08Z"/><path class="cls-1" d="M269.46,149.26h-18.68l-.28-.3-18.68-19.98v.08l-12.03-12.91v-19.06h32.48c.92,0,1.84,.08,2.76,.3,2.76,.61,5.24,2.05,7.22,4.18,1.84,1.97,3.11,4.48,3.75,7.22,.28,1.14,.42,2.35,.42,3.57,0,.53,0,1.06-.07,1.6-.14,4.18-1.7,8.05-4.39,10.94-2.76,2.96-6.44,4.63-10.33,4.71h-.78l18.61,19.67Zm-49.53-27.42l12.03,12.91v14.36h-12.03v-27.27Zm30.14-5.24c.28,0,.57,0,.85-.08,.21-.08,.42-.15,.64-.23,.57-.23,1.06-.61,1.49-1.06,.07-.08,.14-.15,.21-.23l.21-.23c.07-.08,.07-.15,.07-.23,.07-.15,.14-.3,.21-.46,.21-.61,.35-1.22,.35-1.9v-.46c0-.15,0-.3-.07-.46-.07-.23-.14-.46-.21-.68h-21.09l5.73,6.15h11.53l.07-.15Z"/><path class="cls-1" d="M325.15,97.01v12.91h-18.33v19.22l-12.03-12.91v-6.3h-18.26v-12.91h48.61Zm-30.36,25.14l12.03,12.91v14.13h-12.03v-27.04Z"/><path class="cls-1" d="M363.71,133.69l8.56,9.19-.85,.76c-4.32,3.57-9.48,5.47-14.93,5.47-6.51,0-12.6-2.73-17.19-7.67-4.6-4.94-7.15-11.47-7.15-18.46,0-5.85,1.77-11.39,5.09-16.03l.71-.91,8.56,9.19-.42,.68c-1.2,2.05-1.84,4.48-1.84,6.99,0,3.49,1.27,6.76,3.61,9.27,2.33,2.51,5.38,3.87,8.63,3.87,2.33,0,4.6-.68,6.51-1.97l.71-.38Zm9.98-29.17c4.6,4.94,7.15,11.47,7.15,18.46,0,5.85-1.77,11.39-5.09,16.03l-.71,.91-8.56-9.19,.42-.68c1.2-2.05,1.84-4.48,1.84-6.99,0-3.49-1.27-6.76-3.61-9.27-2.34-2.51-5.38-3.87-8.63-3.87-2.34,0-4.6,.68-6.51,1.97l-.64,.46-8.56-9.19,.85-.76c4.32-3.57,9.48-5.47,14.93-5.47,6.51,0,12.6,2.73,17.19,7.67l-.07-.08Z"/><path class="cls-1" d="M421.03,115.77l-14.72,33.42-22.64-51.19h13.23l10.33,23.32,7.29-16.56,.92-2.05,1.49,3.49,4.1,9.57Zm25.12-17.85l-16.2,36.53-6.51,14.66-.99-2.28-5.59-12.53-.07-.15,5.94-13.37,.64-1.52,9.48-21.34h13.3Z"/><path class="cls-1" d="M497.94,95.57v53.7h-11.32l-.5-.53-13.23-14.2-7.71-8.28-12.03-12.91v-16.25h1.91l.28,.3,30.57,32.81v-21.72l.28-.3,11.75-12.61Zm-44.79,23.62l12.03,12.91v17.09h-12.03v-30Z"/></g></g></svg>