<?xml version="1.0" encoding="UTF-8"?><svg id="Calque_2" xmlns="http://www.w3.org/2000/svg" viewBox="0 0 400.28 45.6"><defs><style>.cls-1{fill:#1b1734;}</style></defs><g id="Calque_3"><g><path class="cls-1" d="M44.62,.2V11.24H27.8V27.67l-11.04-11.04v-5.39H0V.2H44.62ZM16.76,21.7l11.04,11.04v12.08h-11.04V21.7Z"/><path class="cls-1" d="M90.03,.26V44.89h-11.04V28.13h-12.99l-14.88-14.88V.2h11.04V8.64l8.38,8.38h8.44V.2l11.04,.06ZM51.12,18.25l11.04,11.04v15.52h-11.04V18.25Z"/><path class="cls-1" d="M109.97,28.19l-13.51-13.51V.26h37.28V11.3h-25.01l5.78,5.78h19.23v11.04l-23.77,.07Zm23.77,5.65v11.04h-37.22V19.62l11.04,11.04v3.12l26.18,.07Z"/><path class="cls-1" d="M216.7,44.89h-17.15l-.26-.26-17.15-17.08v.06l-11.04-11.04V.26h29.81c.84,0,1.69,.07,2.53,.26,2.53,.52,4.81,1.75,6.63,3.57,1.69,1.69,2.86,3.83,3.44,6.17,.26,.97,.39,2.01,.39,3.05,0,.46,0,.91-.06,1.36-.13,3.57-1.56,6.88-4.03,9.35-2.53,2.53-5.91,3.96-9.48,4.03h-.71l17.08,16.82Zm-45.47-23.45l11.04,11.04v12.28h-11.04V21.44Zm27.67-4.48c.26,0,.52,0,.78-.07,.19-.06,.39-.13,.58-.19,.52-.2,.97-.52,1.36-.91,.06-.07,.13-.13,.19-.2,.06-.07,.13-.13,.19-.2,.06-.06,.06-.13,.06-.19,.06-.13,.13-.26,.2-.39,.19-.52,.32-1.04,.32-1.62v-.39c0-.13,0-.26-.06-.39-.06-.2-.13-.39-.19-.58h-19.36l5.26,5.26h10.59l.06-.13Z"/><path class="cls-1" d="M234.18,16.11l-11.11-11.11V0h11.11V16.11Zm12.41,17.41l8.83,8.83-1.23,.52c-2.79,1.17-5.72,1.75-8.77,1.75-4.55,0-8.9-1.36-12.6-3.9-6.04-4.16-9.68-11.04-9.68-18.38V10.07l11.11,11.11v1.23c0,2.99,1.17,5.78,3.31,7.92s4.94,3.31,7.92,3.31h.78l.32-.13ZM267.82,.13V22.48c0,3.51-.78,6.88-2.34,10s-3.64,5.65-6.24,7.67l-.65,.45-7.99-7.99,.91-.58c.71-.45,1.36-.97,1.95-1.56,2.14-2.14,3.31-4.94,3.31-7.92V.2l11.04-.07Z"/><path class="cls-1" d="M287.31,34.04l10.78,10.78h-23.77V.2h11.04V33.78h1.69l.26,.26Zm18.06-.26v11.04h-2.21l-11.04-11.04h13.25Z"/><path class="cls-1" d="M325.31,28.19l-13.51-13.51V.26h37.29V11.3h-25.01l5.78,5.78h19.23v11.04l-23.77,.07Zm23.77,5.65v11.04h-37.22V19.62l11.04,11.04v3.12l26.18,.07Z"/><path class="cls-1" d="M399.3,27.67c.39,1.3,.58,2.66,.58,4.03s-.2,2.73-.58,4.03c-.84,2.79-2.6,5.33-4.94,7.08-2.4,1.82-5.33,2.79-8.38,2.79h-30.72v-11.04h30.72c1.56,0,2.86-1.3,2.86-2.86s-1.3-2.86-2.86-2.86h-16.82c-1.36,0-2.73-.19-4.03-.58-2.21-.65-4.22-1.88-5.85-3.51s-2.86-3.64-3.51-5.85c-.39-1.3-.58-2.66-.58-4.03s.2-2.73,.58-4.03c.65-2.21,1.88-4.22,3.51-5.85s3.64-2.86,5.85-3.51c.33-.13,.65-.19,.97-.26l.45-.13,10.85,10.85h-8.25c-1.56,0-2.86,1.3-2.86,2.86s1.3,2.86,2.86,2.86h19.94c.13,0,.26,.07,.39,.13h.07l.13,.06h.2c.13,.07,.26,.13,.39,.2h.06c.26,.06,.52,.13,.78,.19h.07c.13,.07,.26,.13,.39,.2h.06c.2,.06,.39,.13,.58,.19h.2c.13,.07,.26,.13,.39,.2,.19,.13,.39,.26,.58,.39l.33,.19c.13,.07,.26,.13,.39,.2,.13,.06,.26,.13,.39,.19l.07,.07c.26,.2,.52,.39,.78,.58,.06,.06,.19,.13,.32,.26,.07,.06,.13,.13,.2,.19l.13,.13c.06,0,.13,0,.2,.07l.19,.19,.58,.58c.06,.06,.13,.13,.19,.2l.13,.13v.19l.2,.2,.06,.06c.07,.13,.13,.26,.2,.39,.06,.07,.13,.13,.19,.2,.07,.06,.13,.13,.2,.19l.07,.13c.19,.39,.39,.78,.58,1.17l.07,.06,.39,.78,.06,.13,.2,.58v.2l.19,.45-.39,.71Zm.97-27.48V11.24h-17.41L371.83,.2h28.45Z"/></g></g></svg>