<?xml version="1.0" encoding="UTF-8"?><svg id="Calque_2" xmlns="http://www.w3.org/2000/svg" viewBox="0 0 432.5 46.64"><defs><style>.cls-1{fill:#1b1734;}</style></defs><g id="Calque_3"><g><path class="cls-1" d="M44.11,28.71c.39,1.3,.58,2.66,.58,4.03s-.19,2.73-.58,4.03c-.84,2.79-2.6,5.33-4.94,7.08-2.4,1.82-5.33,2.79-8.38,2.79H.06v-11.04H30.79c1.56,0,2.86-1.3,2.86-2.86s-1.3-2.86-2.86-2.86H13.97c-1.36,0-2.73-.19-4.03-.58-2.21-.65-4.22-1.88-5.85-3.51-1.62-1.62-2.86-3.64-3.51-5.85-.39-1.3-.58-2.66-.58-4.03s.19-2.73,.58-4.03c.65-2.21,1.88-4.22,3.51-5.85,1.62-1.62,3.64-2.86,5.85-3.51,.32-.13,.65-.19,.97-.26l.45-.13,10.85,10.85H13.97c-1.56,0-2.86,1.3-2.86,2.86s1.3,2.86,2.86,2.86h19.94c.13,0,.26,.07,.39,.13h.06l.13,.06h.19c.13,.07,.26,.13,.39,.2h.06c.26,.06,.52,.13,.78,.19h.06c.13,.07,.26,.13,.39,.2h.06c.19,.06,.39,.13,.58,.19h.19c.13,.07,.26,.13,.39,.2,.2,.13,.39,.26,.58,.39l.32,.19c.13,.07,.26,.13,.39,.2,.13,.06,.26,.13,.39,.19l.06,.07c.26,.2,.52,.39,.78,.58,.06,.06,.19,.13,.32,.26,.06,.06,.13,.13,.19,.19l.13,.13c.06,0,.13,0,.19,.07,.06,.06,.13,.13,.19,.19,.19,.2,.39,.39,.58,.58,.06,.06,.13,.13,.2,.2l.13,.13v.19c.06,.07,.13,.13,.19,.2l.06,.06,.19,.39c.06,.07,.13,.13,.19,.2,.06,.06,.13,.13,.19,.19l.06,.13c.19,.39,.39,.78,.58,1.17l.06,.06c.13,.26,.26,.52,.39,.78l.06,.13,.19,.58v.2l.19,.45-.39,.71Zm.97-27.48V12.28H27.67L16.63,1.23h28.45Z"/><path class="cls-1" d="M65.02,29.23l-13.51-13.51V1.3h37.28V12.34h-25.01l5.78,5.78h19.23v11.04l-23.77,.07Zm23.77,5.65v11.04H51.58V20.66l11.04,11.04v3.12l26.18,.07Z"/><path class="cls-1" d="M139.99,1.23V12.28h-16.82V28.71l-11.04-11.04v-5.39h-16.76V1.23h44.62Zm-27.87,21.5l11.04,11.04v12.08h-11.04V22.73Z"/><path class="cls-1" d="M191.11,1.23V12.28h-16.82V28.71l-11.04-11.04v-5.39h-16.76V1.23h44.62Zm-27.87,21.5l11.04,11.04v12.08h-11.04V22.73Z"/><path class="cls-1" d="M208.65,1.23V17.8l-11.04-11.04V1.23h11.04Zm-11.04,10.59l11.04,11.04v23h-11.04V11.82Z"/><path class="cls-1" d="M256.26,0V45.92h-10.39l-.45-.46-12.15-12.15-7.08-7.08-11.04-11.04V1.3h1.75l.26,.26,28.06,28.06V11.04l.26-.26,10.78-10.78Zm-41.12,20.2l11.04,11.04v14.62h-11.04V20.2Z"/><path class="cls-1" d="M307.45,27.28v18.51h-11.04v-2.99c-3.38,2.01-7.28,3.05-11.24,3.05-5.98,0-11.56-2.34-15.78-6.56-4.22-4.22-6.56-9.81-6.56-15.78,0-3.38,.71-6.63,2.14-9.61l.52-1.17,8.57,8.57-.07,.46c-.07,.58-.13,1.17-.13,1.75,0,2.99,1.17,5.78,3.31,7.92s4.94,3.31,7.92,3.31c2.34,0,4.55-.71,6.43-2.01l-4.03-5.59,19.94,.13Zm-31.96-9.68l-7.92-7.92,.52-.65c4.22-5,10.46-7.86,17.02-7.86,4.55,0,8.9,1.36,12.6,3.96,4.68,3.18,7.92,7.99,9.16,13.51l.26,1.1h-11.43l-.26-.52c-.58-1.36-1.43-2.6-2.47-3.64-2.14-2.14-4.94-3.31-7.92-3.31s-5.78,1.17-7.92,3.31c-.39,.39-.78,.84-1.1,1.3l-.52,.71Z"/><path class="cls-1" d="M355.71,17.15l-11.11-11.11V1.04h11.11V17.15Zm12.41,17.41l8.83,8.83-1.23,.52c-2.79,1.17-5.72,1.75-8.77,1.75-4.55,0-8.9-1.36-12.6-3.9-6.04-4.16-9.68-11.04-9.68-18.38V11.11l11.11,11.11v1.23c0,2.99,1.17,5.78,3.31,7.92s4.94,3.31,7.92,3.31h.78l.32-.13ZM389.36,1.17V23.51c0,3.51-.78,6.88-2.34,10-1.49,2.99-3.64,5.65-6.24,7.67l-.65,.45-7.99-7.99,.91-.58c.71-.45,1.36-.97,1.95-1.56,2.14-2.14,3.31-4.94,3.31-7.92V1.23l11.04-.07Z"/><path class="cls-1" d="M432.1,11.24c.26,.97,.39,2.01,.39,3.05,0,2.99-.97,5.78-2.79,8.12-.32,.39-.65,.78-1.04,1.17-2.47,2.47-5.72,3.83-9.22,3.83h-13.84l-9.74-9.74V1.36h23.64c3.51,0,6.76,1.36,9.22,3.83,1.69,1.69,2.86,3.83,3.44,6.17l-.07-.13Zm-36.25,11.37l11.04,11.04v12.02h-11.04V22.6Zm24.49-5.98c.52-.65,.78-1.43,.78-2.27,0-.33-.06-.65-.13-.91-.13-.65-.45-1.23-.97-1.75-.71-.71-1.69-1.1-2.73-1.1h-10.46v1.49l6.04,6.04h4.35c1.04,0,2.01-.39,2.73-1.1,.13-.13,.26-.26,.33-.39h.06Z"/></g></g></svg>