<?xml version="1.0" encoding="UTF-8"?><svg id="Calque_2" xmlns="http://www.w3.org/2000/svg" viewBox="0 0 386.24 45.47"><defs><style>.cls-1{fill:#fff;}</style></defs><g id="Calque_3"><g><path class="cls-1" d="M28.97,32.15l7.86,7.86-.78,.65c-3.96,3.05-8.7,4.68-13.71,4.68-5.98,0-11.56-2.34-15.78-6.56C2.34,34.56,0,28.97,0,22.99c0-5,1.62-9.74,4.68-13.71l.65-.78,7.86,7.86-.39,.58c-1.1,1.75-1.69,3.83-1.69,5.98,0,2.99,1.17,5.78,3.31,7.92,2.14,2.14,4.94,3.31,7.92,3.31,2.14,0,4.22-.58,5.98-1.69l.65-.32ZM38.13,7.21c4.22,4.22,6.56,9.81,6.56,15.78,0,5-1.62,9.74-4.68,13.71l-.65,.78-7.86-7.86,.39-.58c1.1-1.75,1.69-3.83,1.69-5.98,0-2.99-1.17-5.78-3.31-7.92s-4.94-3.31-7.92-3.31c-2.14,0-4.22,.58-5.98,1.69l-.58,.39L7.92,6.04l.78-.65C12.67,2.34,17.41,.71,22.41,.71c5.98,0,11.56,2.34,15.78,6.56l-.06-.06Z"/><path class="cls-1" d="M62.17,16.69l-11.11-11.11V.58h11.11V16.69Zm12.41,17.41l8.83,8.83-1.23,.52c-2.79,1.17-5.72,1.75-8.77,1.75-4.55,0-8.9-1.36-12.6-3.9-6.04-4.16-9.68-11.04-9.68-18.38V10.65l11.11,11.11v1.23c0,2.99,1.17,5.78,3.31,7.92,2.14,2.14,4.94,3.31,7.92,3.31h.78l.32-.13ZM95.81,.71V23.06c0,3.51-.78,6.88-2.34,10s-3.64,5.65-6.24,7.67l-.65,.45-7.99-7.99,.91-.58c.71-.45,1.36-.97,1.95-1.56,2.14-2.14,3.31-4.94,3.31-7.92V.78l11.04-.07Z"/><path class="cls-1" d="M147.84,45.47h-17.15l-.26-.26-17.15-17.08v.06l-11.04-11.04V.84h29.81c.84,0,1.69,.07,2.53,.26,2.53,.52,4.81,1.75,6.63,3.57,1.69,1.69,2.86,3.83,3.44,6.17,.26,.97,.39,2.01,.39,3.05,0,.46,0,.91-.06,1.36-.13,3.57-1.56,6.88-4.03,9.35-2.53,2.53-5.91,3.96-9.48,4.03h-.71l17.08,16.82Zm-45.47-23.45l11.04,11.04v12.28h-11.04V22.02Zm27.67-4.48c.26,0,.52,0,.78-.07,.19-.06,.39-.13,.58-.19,.52-.2,.97-.52,1.36-.91,.06-.07,.13-.13,.19-.2,.06-.07,.13-.13,.19-.2,.06-.06,.06-.13,.06-.19,.06-.13,.13-.26,.2-.39,.19-.52,.32-1.04,.32-1.62v-.39c0-.13,0-.26-.06-.39-.06-.2-.13-.39-.19-.58h-19.36l5.26,5.26h10.59l.06-.13Z"/><path class="cls-1" d="M229.82,.78V11.82h-16.82V28.26l-11.04-11.04v-5.39h-16.76V.78h44.62Zm-27.87,21.5l11.04,11.04v12.08h-11.04V22.28Z"/><path class="cls-1" d="M249.77,28.78l-13.51-13.51V.84h37.28V11.89h-25.01l5.78,5.78h19.23v11.04l-23.77,.07Zm23.77,5.65v11.04h-37.22V20.2l11.04,11.04v3.12l26.18,.07Z"/><path class="cls-1" d="M299.2,14.03l6.43,10.65-12.6,20.72h-12.93l19.1-31.37Zm36.05,31.44h-12.93l-2.66-4.42-18.38-30.46,6.43-10.59,27.54,45.47Z"/><path class="cls-1" d="M386.24,.78V45.4h-11.04V25.72l-11.24,11.3-11.24-11.3-11.04-11.04V.78h1.75l20.59,20.59L384.62,.78h1.62Zm-44.5,18.97l11.04,11.04v14.62h-11.04V19.75Z"/></g></g></svg>